<?xml version="1.0" encoding="UTF-8"?>
<svg xmlns="http://www.w3.org/2000/svg" xmlns:xlink="http://www.w3.org/1999/xlink" width="90px" height="28px" viewBox="0 0 90 28" version="1.1">
<g id="surface1">
<path style=" stroke:none;fill-rule:nonzero;fill:rgb(85.882354%,37.254903%,24.705882%);fill-opacity:1;" d="M 44.734375 0.0898438 L 45.4375 0.0898438 L 45.789062 0.144531 L 46.492188 0.375 L 47.242188 0.628906 L 47.898438 0.917969 L 47.898438 1.03125 L 47.460938 1.230469 L 46.582031 1.542969 L 45.527344 1.945312 L 44.382812 2.371094 L 43.417969 2.742188 L 42.320312 3.140625 L 41.132812 3.597656 L 40.035156 3.996094 L 39.066406 4.367188 L 37.046875 5.140625 L 36.035156 5.511719 L 35.945312 5.511719 L 35.945312 5.566406 L 36.210938 5.625 L 37.046875 5.9375 L 38.101562 6.339844 L 38.804688 6.59375 L 39.066406 6.59375 L 39.769531 6.367188 L 40.210938 6.167969 L 40.957031 5.910156 L 43.417969 4.996094 L 44.5625 4.570312 L 45.660156 4.167969 L 46.230469 3.941406 L 46.757812 3.742188 L 47.546875 3.457031 L 48.164062 3.199219 L 48.734375 2.972656 L 49.613281 2.65625 L 50.667969 2.257812 L 51.019531 2.144531 L 51.414062 2.230469 L 52.25 2.542969 L 53.261719 2.914062 L 54.316406 3.3125 L 56.164062 3.996094 L 56.996094 4.3125 L 58.09375 4.710938 L 59.105469 5.109375 L 59.632812 5.367188 L 59.808594 5.511719 L 59.808594 5.652344 L 59.414062 5.851562 L 58.359375 6.253906 L 57.699219 6.507812 L 56.558594 6.9375 L 55.8125 7.222656 L 54.667969 7.652344 L 53.875 7.9375 L 52.953125 8.277344 L 51.679688 8.761719 L 50.84375 9.078125 L 50.097656 9.363281 L 49.085938 9.734375 L 47.8125 10.21875 L 46.714844 10.617188 L 46.054688 10.875 L 45.265625 11.160156 L 45.085938 11.21875 L 44.824219 11.1875 L 44.382812 11.019531 L 43.902344 10.847656 L 43.417969 10.648438 L 42.625 10.363281 L 42.101562 10.160156 L 42.101562 10.078125 L 42.582031 9.875 L 43.726562 9.449219 L 44.691406 9.078125 L 45.308594 8.847656 L 46.097656 8.535156 L 46.890625 8.25 L 47.328125 8.078125 L 48.25 7.734375 L 48.910156 7.480469 L 49.394531 7.308594 L 50.140625 7.023438 L 50.933594 6.738281 L 51.722656 6.421875 L 52.382812 6.195312 L 52.953125 5.96875 L 53.789062 5.683594 L 54.097656 5.597656 L 54.054688 5.511719 L 53.394531 5.253906 L 52.425781 4.882812 L 51.414062 4.539062 L 51.152344 4.453125 L 50.933594 4.484375 L 50.359375 4.710938 L 49.304688 5.109375 L 48.296875 5.480469 L 46.449219 6.167969 L 45.308594 6.59375 L 44.253906 6.996094 L 42.273438 7.734375 L 41.351562 8.078125 L 40.605469 8.363281 L 39.507812 8.761719 L 38.9375 8.933594 L 38.714844 8.878906 L 37.703125 8.507812 L 36.871094 8.191406 L 35.773438 7.792969 L 35.332031 7.59375 L 34.453125 7.28125 L 33.835938 7.050781 L 33.046875 6.765625 L 32.914062 6.765625 L 32.914062 8.992188 L 33.132812 9.050781 L 34.101562 9.390625 L 35.113281 9.761719 L 36.296875 10.21875 L 37.351562 10.617188 L 38.363281 10.988281 L 39.289062 11.332031 L 39.992188 11.589844 L 41.046875 11.988281 L 42.144531 12.386719 L 42.714844 12.617188 L 43.945312 13.074219 L 44.515625 13.300781 L 44.957031 13.445312 L 45.175781 13.414062 L 46.011719 13.128906 L 46.625 12.902344 L 47.195312 12.671875 L 47.988281 12.386719 L 49.042969 11.988281 L 49.527344 11.816406 L 49.878906 11.675781 L 51.0625 11.246094 L 51.722656 10.988281 L 52.25 10.789062 L 52.953125 10.53125 L 54.578125 9.90625 L 55.195312 9.675781 L 56.292969 9.25 L 57.261719 8.90625 L 58.316406 8.507812 L 59.414062 8.105469 L 60.03125 7.851562 L 60.160156 7.878906 L 60.160156 14.042969 L 60.074219 14.414062 L 59.765625 14.726562 L 59.457031 14.925781 L 59.019531 15.128906 L 57.964844 15.5 L 57.21875 15.785156 L 56.425781 16.070312 L 55.679688 16.355469 L 55.019531 16.609375 L 54.097656 16.953125 L 53.128906 17.324219 L 52.425781 17.582031 L 51.765625 17.839844 L 50.976562 18.125 L 50.230469 18.410156 L 49.304688 18.75 L 48.339844 19.121094 L 47.636719 19.378906 L 47.023438 19.605469 L 46.363281 19.863281 L 45.660156 20.09375 L 45.308594 20.148438 L 44.734375 20.148438 L 44.078125 20.007812 L 42.976562 19.605469 L 42.054688 19.265625 L 41.617188 19.09375 L 41.21875 18.949219 L 40.515625 18.664062 L 39.8125 18.410156 L 38.234375 17.808594 L 37.53125 17.554688 L 36.605469 17.210938 L 35.550781 16.8125 L 34.804688 16.527344 L 34.320312 16.355469 L 33.574219 16.070312 L 32.5625 15.699219 L 31.773438 15.414062 L 30.671875 14.984375 L 30.234375 14.726562 L 29.925781 14.386719 L 29.882812 14.300781 L 29.882812 12.644531 L 29.96875 12.417969 L 30.585938 12.644531 L 32.5625 13.359375 L 34.847656 14.214844 L 35.507812 14.472656 L 36.519531 14.84375 L 37.660156 15.269531 L 38.714844 15.667969 L 39.726562 16.039062 L 41.660156 16.78125 L 42.363281 17.039062 L 42.757812 17.210938 L 43.636719 17.523438 L 44.429688 17.839844 L 44.914062 18.007812 L 45.132812 17.980469 L 45.789062 17.753906 L 46.140625 17.609375 L 46.582031 17.46875 L 47.285156 17.210938 L 48.339844 16.8125 L 48.953125 16.582031 L 49.351562 16.441406 L 49.964844 16.183594 L 50.539062 15.984375 L 50.976562 15.8125 L 51.8125 15.5 L 53.261719 14.984375 L 53.746094 14.785156 L 54.667969 14.441406 L 55.460938 14.128906 L 56.335938 13.816406 L 57.085938 13.527344 L 57.128906 13.414062 L 57.171875 11.304688 L 56.777344 11.390625 L 55.722656 11.789062 L 54.535156 12.246094 L 53.261719 12.730469 L 51.371094 13.445312 L 50.273438 13.84375 L 49.21875 14.242188 L 48.296875 14.585938 L 47.636719 14.84375 L 46.84375 15.128906 L 46.011719 15.441406 L 45.085938 15.785156 L 44.824219 15.726562 L 43.945312 15.414062 L 43.375 15.183594 L 42.453125 14.84375 L 41.175781 14.355469 L 40.738281 14.183594 L 39.992188 13.929688 L 39.507812 13.730469 L 38.320312 13.300781 L 37.75 13.074219 L 37.265625 12.902344 L 36.476562 12.617188 L 35.816406 12.359375 L 35.332031 12.160156 L 34.496094 11.875 L 34.015625 11.675781 L 32.738281 11.21875 L 32.167969 10.988281 L 31.640625 10.789062 L 30.671875 10.445312 L 30.015625 10.191406 L 29.882812 10.105469 L 29.882812 5.996094 L 30.058594 5.683594 L 30.320312 5.425781 L 30.804688 5.167969 L 31.949219 4.738281 L 32.914062 4.398438 L 33.882812 4.027344 L 34.496094 3.796875 L 34.9375 3.628906 L 35.902344 3.257812 L 36.828125 2.914062 L 37.703125 2.570312 L 38.585938 2.257812 L 41.441406 1.171875 L 42.144531 0.917969 L 43.023438 0.574219 L 43.859375 0.289062 L 44.296875 0.144531 Z M 44.734375 0.0898438 "/>
<path style=" stroke:none;fill-rule:nonzero;fill:rgb(85.882354%,37.254903%,24.705882%);fill-opacity:1;" d="M 1.582031 22.460938 L 6.722656 22.460938 L 6.636719 22.773438 L 6.328125 23.402344 L 6.195312 23.574219 L 1.757812 23.601562 L 1.757812 24.601562 L 1.800781 24.628906 L 6.285156 24.660156 L 6.503906 24.773438 L 6.722656 25.085938 L 6.8125 25.316406 L 6.855469 26.171875 L 6.855469 27.167969 L 6.722656 27.511719 L 6.503906 27.738281 L 6.109375 27.910156 L 5.757812 27.996094 L 0.789062 27.996094 L 0.0859375 27.96875 L 0 27.910156 L 0 26.882812 L 0.0429688 26.855469 L 2.328125 26.796875 L 4.484375 26.769531 L 4.964844 26.742188 L 5.007812 26.628906 L 5.054688 25.886719 L 5.007812 25.742188 L 0.878906 25.742188 L 0.484375 25.628906 L 0.21875 25.429688 L 0.0429688 25.199219 L 0.0429688 23.601562 L 0.0859375 22.890625 L 0.394531 22.660156 L 0.703125 22.488281 Z M 1.582031 22.460938 "/>
<path style=" stroke:none;fill-rule:nonzero;fill:rgb(85.882354%,37.254903%,24.705882%);fill-opacity:1;" d="M 83.9375 23.917969 L 89.957031 23.917969 L 90 23.972656 L 89.515625 24.914062 L 89.382812 25.027344 L 86.617188 25.058594 L 84.992188 25.058594 L 85.035156 25.371094 L 89.339844 25.371094 L 89.734375 25.570312 L 90 25.828125 L 90 27.425781 L 89.78125 27.710938 L 89.382812 27.882812 L 89.03125 27.96875 L 88.769531 27.996094 L 83.453125 27.996094 L 83.277344 27.96875 L 83.234375 27.796875 L 83.234375 26.941406 L 83.277344 26.882812 L 83.496094 26.855469 L 84.507812 26.828125 L 86.484375 26.796875 L 88.328125 26.796875 L 88.375 26.511719 L 84.109375 26.511719 L 83.671875 26.34375 L 83.363281 26.113281 L 83.234375 25.886719 L 83.1875 25.714844 L 83.1875 24.800781 L 83.277344 24.371094 L 83.539062 24.085938 Z M 83.9375 23.917969 "/>
<path style=" stroke:none;fill-rule:nonzero;fill:rgb(85.882354%,37.254903%,24.705882%);fill-opacity:1;" d="M 45.527344 23.886719 L 50.800781 23.886719 L 51.195312 24.058594 L 51.460938 24.34375 L 51.59375 24.601562 L 51.636719 24.773438 L 51.636719 25.429688 L 51.503906 25.972656 L 51.328125 26.285156 L 51.152344 26.398438 L 50.625 26.511719 L 47.066406 26.511719 L 47.023438 26.484375 L 47.023438 25.429688 L 47.109375 25.371094 L 49.789062 25.34375 L 49.789062 25.085938 L 47.503906 25.058594 L 46.492188 25.027344 L 46.492188 26.257812 L 46.539062 26.828125 L 50.007812 26.828125 L 50.359375 26.855469 L 50.1875 27.339844 L 49.921875 27.796875 L 49.746094 27.941406 L 49.527344 27.996094 L 45.484375 27.996094 L 45.484375 27.941406 L 45.265625 27.882812 L 44.78125 27.597656 L 44.734375 27.511719 L 44.734375 24.402344 L 44.914062 24.203125 L 45.351562 23.945312 Z M 45.527344 23.886719 "/>
<path style=" stroke:none;fill-rule:nonzero;fill:rgb(85.882354%,37.64706%,25.098041%);fill-opacity:1;" d="M 76.464844 23.886719 L 81.429688 23.886719 L 81.828125 24.144531 L 82.046875 24.429688 L 82.179688 24.828125 L 82.179688 25.65625 L 82 26.085938 L 81.78125 26.3125 L 81.519531 26.457031 L 81.296875 26.511719 L 77.5625 26.511719 L 77.5625 25.941406 L 77.609375 25.484375 L 77.695312 25.371094 L 80.289062 25.34375 L 80.332031 25.058594 L 78.046875 25.058594 L 77.035156 25.027344 L 77.035156 26.542969 L 77.078125 26.796875 L 77.125 26.828125 L 80.023438 26.828125 L 80.816406 26.855469 L 80.859375 26.96875 L 80.726562 27.371094 L 80.507812 27.796875 L 80.375 27.910156 L 80.070312 27.96875 L 78.835938 27.996094 L 76.554688 27.996094 L 76.113281 27.96875 L 75.453125 27.683594 L 75.320312 27.570312 L 75.277344 26.914062 L 75.277344 24.457031 L 75.410156 24.289062 L 75.804688 24.03125 L 76.070312 23.917969 Z M 76.464844 23.886719 "/>
<path style=" stroke:none;fill-rule:nonzero;fill:rgb(85.882354%,37.254903%,25.098041%);fill-opacity:1;" d="M 69.960938 23.886719 L 73.300781 23.886719 L 73.609375 23.972656 L 73.828125 24.085938 L 74.136719 24.371094 L 74.222656 24.515625 L 74.222656 27.226562 L 74.046875 27.597656 L 73.871094 27.769531 L 73.652344 27.882812 L 73.167969 27.996094 L 68.117188 27.996094 L 67.894531 27.910156 L 67.367188 27.453125 L 67.324219 27.371094 L 67.324219 24.574219 L 67.5 24.289062 L 67.808594 24.058594 L 68.160156 23.917969 Z M 69.082031 25.027344 L 69.039062 25.257812 L 69.039062 25.714844 L 69.082031 26.769531 L 69.171875 26.855469 L 69.34375 26.882812 L 72.378906 26.855469 L 72.464844 26.769531 L 72.507812 26.628906 L 72.507812 25.058594 L 72.464844 25.027344 Z M 69.082031 25.027344 "/>
<path style=" stroke:none;fill-rule:nonzero;fill:rgb(85.882354%,37.254903%,24.705882%);fill-opacity:1;" d="M 12.832031 23.859375 L 17.796875 23.859375 L 18.28125 24.085938 L 18.632812 24.371094 L 18.765625 24.574219 L 18.765625 26.882812 L 18.71875 27.910156 L 18.675781 27.941406 L 18.367188 27.96875 L 17.007812 27.96875 L 16.960938 27.910156 L 16.960938 27.453125 L 17.007812 26.796875 L 17.007812 25.058594 L 13.625 25.027344 L 13.667969 26.742188 L 13.710938 26.828125 L 15.820312 26.828125 L 15.996094 26.796875 L 16.347656 26.914062 L 16.304688 27.167969 L 15.996094 27.710938 L 15.777344 27.941406 L 15.601562 27.996094 L 13.007812 27.996094 L 12.613281 27.941406 L 12.347656 27.824219 L 12.039062 27.597656 L 11.910156 27.425781 L 11.867188 25.742188 L 11.867188 24.660156 L 11.953125 24.34375 L 12.128906 24.171875 L 12.4375 24.003906 Z M 12.832031 23.859375 "/>
<path style=" stroke:none;fill-rule:nonzero;fill:rgb(85.882354%,37.254903%,25.098041%);fill-opacity:1;" d="M 38.539062 23.886719 L 42.804688 23.886719 L 43.15625 24.003906 L 43.460938 24.230469 L 43.59375 24.371094 L 43.59375 27.484375 L 43.285156 27.796875 L 42.976562 27.910156 L 42.582031 27.996094 L 39.15625 27.996094 L 39.109375 27.941406 L 39.15625 27.65625 L 39.417969 27.140625 L 39.640625 26.855469 L 39.726562 26.828125 L 41.75 26.828125 L 41.835938 26.65625 L 41.878906 26.425781 L 41.878906 25.800781 L 41.835938 25.027344 L 38.585938 25.027344 L 38.539062 25.257812 L 38.539062 27.996094 L 36.828125 27.996094 L 36.78125 27.683594 L 36.828125 24.515625 L 37 24.230469 L 37.265625 24.003906 L 37.398438 23.917969 Z M 38.539062 23.886719 "/>
<path style=" stroke:none;fill-rule:nonzero;fill:rgb(85.882354%,37.64706%,25.098041%);fill-opacity:1;" d="M 59.546875 22.460938 L 60.863281 22.460938 L 61.171875 22.488281 L 61.214844 22.519531 L 61.257812 23.859375 L 65.433594 23.859375 L 65.917969 24.085938 L 66.179688 24.316406 L 66.269531 24.660156 L 66.269531 27.941406 L 64.601562 27.941406 L 64.554688 27.824219 L 64.511719 25.058594 L 61.257812 25.027344 L 61.214844 27.910156 L 61.085938 27.941406 L 59.546875 27.941406 L 59.5 27.882812 L 59.5 22.488281 Z M 59.546875 22.460938 "/>
<path style=" stroke:none;fill-rule:nonzero;fill:rgb(85.882354%,37.254903%,25.098041%);fill-opacity:1;" d="M 28.914062 23.859375 L 30.367188 23.859375 L 30.585938 23.886719 L 30.628906 26.085938 L 30.671875 26.828125 L 33.925781 26.855469 L 33.96875 25.144531 L 33.96875 24.117188 L 34.015625 23.886719 L 35.640625 23.886719 L 35.683594 24.144531 L 35.683594 27.285156 L 35.550781 27.570312 L 35.375 27.738281 L 35.15625 27.855469 L 34.804688 27.96875 L 34.628906 27.996094 L 29.617188 27.996094 L 29.222656 27.796875 L 29.003906 27.625 L 28.914062 27.484375 L 28.871094 27.285156 L 28.871094 24.117188 Z M 28.914062 23.859375 "/>
<path style=" stroke:none;fill-rule:nonzero;fill:rgb(85.882354%,37.64706%,25.098041%);fill-opacity:1;" d="M 53.789062 23.859375 L 58.09375 23.859375 L 58.273438 23.886719 L 58.226562 24.144531 L 57.964844 24.628906 L 57.699219 24.945312 L 57.523438 25.027344 L 54.449219 25.027344 L 54.40625 25.113281 L 54.40625 26.65625 L 54.492188 26.828125 L 58.273438 26.855469 L 58.316406 27.027344 L 58.316406 27.941406 L 58.09375 27.996094 L 53.703125 27.996094 L 53.351562 27.941406 L 53 27.769531 L 52.777344 27.597656 L 52.648438 27.3125 L 52.648438 24.601562 L 52.777344 24.257812 L 53.085938 24.03125 L 53.4375 23.917969 Z M 53.789062 23.859375 "/>
<path style=" stroke:none;fill-rule:nonzero;fill:rgb(85.882354%,37.64706%,25.098041%);fill-opacity:1;" d="M 8 23.144531 L 9.625 23.144531 L 9.667969 23.832031 L 10.546875 23.859375 L 10.8125 23.917969 L 10.765625 24.058594 L 10.503906 24.402344 L 10.28125 24.859375 L 9.976562 25 L 9.667969 25.058594 L 9.757812 26.628906 L 9.800781 26.828125 L 10.765625 26.828125 L 10.765625 27.253906 L 10.722656 27.910156 L 10.679688 27.96875 L 10.546875 27.996094 L 8.789062 27.996094 L 8.304688 27.769531 L 8.042969 27.570312 L 7.910156 27.285156 L 7.910156 25.113281 L 7.953125 23.175781 Z M 8 23.144531 "/>
<path style=" stroke:none;fill-rule:nonzero;fill:rgb(85.882354%,37.254903%,24.705882%);fill-opacity:1;" d="M 25.003906 23.175781 L 26.585938 23.203125 L 26.632812 23.230469 L 26.675781 23.832031 L 27.464844 23.859375 L 27.640625 23.886719 L 27.597656 24.203125 L 27.335938 24.714844 L 27.113281 24.945312 L 26.761719 25.058594 L 26.675781 25.058594 L 26.71875 26.855469 L 27.773438 26.828125 L 27.773438 27.96875 L 27.335938 27.996094 L 26.015625 27.996094 L 25.621094 27.910156 L 25.226562 27.742188 L 25.003906 27.597656 L 24.917969 27.484375 L 24.917969 23.917969 L 24.960938 23.203125 Z M 25.003906 23.175781 "/>
<path style=" stroke:none;fill-rule:nonzero;fill:rgb(85.882354%,37.64706%,25.098041%);fill-opacity:1;" d="M 22.324219 23.859375 L 24.082031 23.859375 L 24.214844 23.917969 L 24.214844 24.171875 L 23.949219 24.628906 L 23.6875 24.972656 L 23.597656 25.027344 L 21.621094 25.027344 L 21.578125 27.453125 L 21.53125 27.96875 L 21.488281 27.996094 L 20.828125 27.996094 L 20.082031 27.96875 L 19.863281 27.910156 L 19.820312 27.769531 L 19.820312 24.515625 L 20.082031 24.171875 L 20.433594 23.945312 L 20.523438 23.917969 L 20.917969 23.886719 Z M 22.324219 23.859375 "/>
<path style=" stroke:none;fill-rule:nonzero;fill:rgb(93.333334%,39.215687%,23.529412%);fill-opacity:1;" d="M 30.320312 14.671875 L 30.542969 14.671875 L 30.71875 14.757812 L 30.71875 14.8125 L 30.894531 14.871094 L 31.289062 15.011719 L 31.859375 15.183594 L 31.90625 15.242188 L 32.125 15.269531 L 32.167969 15.328125 L 32.429688 15.382812 L 32.828125 15.554688 L 32.914062 15.527344 L 32.960938 15.582031 L 33.664062 15.8125 L 33.664062 15.867188 L 33.925781 15.925781 L 34.015625 15.953125 L 34.015625 16.011719 L 34.234375 16.039062 L 34.367188 16.125 L 34.496094 16.15625 L 34.539062 16.210938 L 34.804688 16.269531 L 34.847656 16.324219 L 34.9375 16.324219 L 35.113281 16.441406 L 35.375 16.527344 L 35.816406 16.640625 L 36.078125 16.695312 L 36.078125 16.753906 L 36.34375 16.78125 L 36.5625 16.925781 L 36.738281 16.953125 L 36.738281 17.011719 L 37 17.066406 L 37.222656 17.183594 L 37.351562 17.210938 L 37.351562 17.265625 L 37.574219 17.296875 L 37.75 17.351562 L 37.925781 17.46875 L 38.054688 17.46875 L 38.054688 17.523438 L 38.234375 17.582031 L 38.585938 17.667969 L 38.847656 17.78125 L 39.332031 17.953125 L 39.507812 18.039062 L 39.859375 18.152344 L 39.902344 18.210938 L 40.210938 18.265625 L 40.34375 18.324219 L 40.34375 18.378906 L 40.429688 18.378906 L 40.429688 18.4375 L 40.695312 18.496094 L 41 18.609375 L 41 18.664062 L 41.21875 18.722656 L 41.441406 18.808594 L 41.660156 18.835938 L 42.054688 19.007812 L 42.1875 19.007812 L 42.1875 19.066406 L 42.363281 19.121094 L 42.582031 19.179688 L 42.582031 19.238281 L 42.890625 19.292969 L 42.976562 19.351562 L 43.199219 19.40625 L 43.375 19.464844 L 43.8125 19.636719 L 44.210938 19.75 L 44.253906 19.808594 L 45.085938 19.863281 L 45.351562 19.863281 L 45.746094 19.777344 L 46.539062 19.523438 L 47.195312 19.292969 L 47.460938 19.238281 L 47.546875 19.179688 L 47.726562 19.121094 L 48.207031 19.007812 L 48.515625 18.921875 L 48.691406 18.949219 L 48.558594 18.949219 L 48.558594 19.035156 L 47.8125 19.320312 L 47.023438 19.605469 L 46.363281 19.863281 L 45.660156 20.09375 L 45.308594 20.148438 L 44.734375 20.148438 L 44.078125 20.007812 L 42.976562 19.605469 L 42.054688 19.265625 L 41.617188 19.09375 L 41.21875 18.949219 L 40.515625 18.664062 L 39.8125 18.410156 L 38.234375 17.808594 L 37.53125 17.554688 L 36.605469 17.210938 L 35.550781 16.8125 L 34.804688 16.527344 L 34.320312 16.355469 L 33.574219 16.070312 L 32.5625 15.699219 L 31.773438 15.414062 L 30.671875 14.984375 L 30.320312 14.726562 Z M 30.320312 14.671875 "/>
<path style=" stroke:none;fill-rule:nonzero;fill:rgb(93.333334%,39.215687%,23.529412%);fill-opacity:1;" d="M 30.101562 9.789062 L 30.234375 9.90625 L 30.277344 10.105469 L 30.5 10.160156 L 31.070312 10.390625 L 31.507812 10.53125 L 31.992188 10.675781 L 32.300781 10.761719 L 32.519531 10.816406 L 32.519531 10.875 L 32.828125 10.933594 L 32.828125 10.988281 L 33.003906 11.019531 L 33.003906 11.074219 L 33.265625 11.105469 L 33.265625 11.160156 L 33.355469 11.160156 L 33.53125 11.273438 L 33.835938 11.417969 L 34.453125 11.617188 L 34.539062 11.675781 L 34.804688 11.730469 L 35.242188 11.902344 L 35.507812 11.988281 L 35.507812 12.046875 L 35.726562 12.046875 L 35.859375 12.132812 L 35.992188 12.160156 L 35.992188 12.214844 L 36.167969 12.246094 L 36.34375 12.332031 L 36.5625 12.386719 L 36.828125 12.472656 L 36.828125 12.53125 L 37.089844 12.558594 L 37.132812 12.617188 L 37.351562 12.671875 L 38.234375 13.015625 L 38.714844 13.1875 L 38.980469 13.273438 L 38.980469 13.328125 L 39.242188 13.386719 L 39.59375 13.558594 L 39.945312 13.644531 L 39.945312 13.699219 L 40.078125 13.730469 L 40.078125 13.785156 L 40.253906 13.785156 L 40.296875 13.871094 L 40.5625 13.871094 L 40.738281 13.984375 L 41 14.070312 L 41.441406 14.269531 L 41.703125 14.355469 L 42.011719 14.472656 L 42.1875 14.5 L 42.1875 14.554688 L 42.40625 14.613281 L 42.847656 14.757812 L 43.023438 14.871094 L 43.636719 15.070312 L 43.769531 15.15625 L 44.121094 15.269531 L 44.429688 15.328125 L 44.867188 15.441406 L 45.265625 15.441406 L 45.617188 15.355469 L 45.96875 15.242188 L 46.273438 15.097656 L 46.492188 15.070312 L 46.671875 15.011719 L 46.757812 15.011719 L 46.800781 14.925781 L 46.933594 14.925781 L 46.976562 14.871094 L 47.195312 14.8125 L 47.59375 14.640625 L 47.769531 14.613281 L 47.898438 14.699219 L 47.726562 14.8125 L 47.066406 15.042969 L 46.097656 15.414062 L 45.085938 15.785156 L 44.824219 15.726562 L 43.945312 15.414062 L 43.375 15.183594 L 42.453125 14.84375 L 41.175781 14.355469 L 40.738281 14.183594 L 39.992188 13.929688 L 39.507812 13.730469 L 38.320312 13.300781 L 37.75 13.074219 L 37.265625 12.902344 L 36.476562 12.617188 L 35.816406 12.359375 L 35.332031 12.160156 L 34.496094 11.875 L 34.015625 11.675781 L 32.738281 11.21875 L 32.167969 10.988281 L 31.640625 10.789062 L 30.671875 10.445312 L 30.101562 10.21875 L 29.925781 9.992188 L 29.96875 9.820312 Z M 30.101562 9.789062 "/>
<path style=" stroke:none;fill-rule:nonzero;fill:rgb(93.333334%,39.215687%,23.529412%);fill-opacity:1;" d="M 59.414062 5.652344 L 59.546875 5.738281 L 59.546875 5.796875 L 58.667969 6.136719 L 57.699219 6.507812 L 56.558594 6.9375 L 55.8125 7.222656 L 54.667969 7.652344 L 53.875 7.9375 L 52.953125 8.277344 L 51.679688 8.761719 L 50.84375 9.078125 L 50.1875 9.335938 L 49.921875 9.335938 L 50.007812 9.191406 L 50.1875 9.164062 L 50.230469 9.105469 L 50.273438 9.132812 L 50.316406 9.078125 L 50.449219 9.078125 L 50.492188 9.019531 L 50.582031 9.050781 L 50.582031 8.992188 L 50.710938 8.90625 L 50.933594 8.878906 L 50.976562 8.820312 L 51.109375 8.820312 L 51.109375 8.761719 L 51.328125 8.707031 L 51.679688 8.535156 L 51.765625 8.535156 L 51.765625 8.476562 L 51.945312 8.449219 L 52.339844 8.308594 L 52.515625 8.277344 L 52.601562 8.191406 L 52.734375 8.191406 L 52.777344 8.136719 L 52.777344 8.191406 L 52.867188 8.191406 L 52.910156 8.105469 L 53 8.105469 L 53 8.050781 L 53.085938 8.078125 L 53.304688 7.9375 L 53.523438 7.878906 L 53.703125 7.820312 L 53.832031 7.820312 L 53.832031 7.765625 L 53.921875 7.765625 L 53.964844 7.679688 L 54.183594 7.621094 L 54.359375 7.566406 L 54.449219 7.59375 L 54.492188 7.507812 L 54.625 7.507812 L 54.667969 7.449219 L 54.757812 7.480469 L 54.757812 7.421875 L 54.929688 7.335938 L 55.019531 7.367188 L 55.019531 7.308594 L 55.28125 7.195312 L 55.765625 7.023438 L 56.117188 6.878906 L 56.207031 6.878906 L 56.207031 6.824219 L 56.734375 6.652344 L 57.171875 6.453125 L 57.523438 6.339844 L 57.832031 6.195312 L 58.183594 6.082031 L 58.402344 5.996094 L 58.578125 5.996094 L 58.625 5.9375 L 58.796875 5.910156 L 58.976562 5.9375 L 59.148438 5.796875 L 59.148438 5.738281 Z M 59.414062 5.652344 "/>
<path style=" stroke:none;fill-rule:nonzero;fill:rgb(93.333334%,39.215687%,23.529412%);fill-opacity:1;" d="M 33.089844 6.59375 L 33.441406 6.652344 L 34.101562 6.878906 L 34.277344 6.9375 L 34.804688 7.136719 L 35.070312 7.222656 L 35.070312 7.28125 L 35.242188 7.28125 L 35.242188 7.335938 L 35.59375 7.449219 L 35.816406 7.535156 L 35.816406 7.59375 L 36.035156 7.621094 L 36.476562 7.792969 L 36.871094 7.964844 L 36.957031 7.964844 L 36.957031 8.023438 L 37.179688 8.078125 L 37.574219 8.222656 L 37.660156 8.222656 L 37.660156 8.277344 L 37.835938 8.308594 L 38.144531 8.421875 L 38.496094 8.507812 L 38.9375 8.621094 L 39.375 8.621094 L 39.375 8.792969 L 38.9375 8.933594 L 38.714844 8.878906 L 37.703125 8.507812 L 36.871094 8.191406 L 35.773438 7.792969 L 35.332031 7.59375 L 34.453125 7.28125 L 33.835938 7.050781 L 33.046875 6.765625 L 33.003906 6.679688 L 33.089844 6.679688 Z M 33.089844 6.59375 "/>
<path style=" stroke:none;fill-rule:nonzero;fill:rgb(93.333334%,39.215687%,23.529412%);fill-opacity:1;" d="M 41.484375 3.3125 L 41.570312 3.3125 L 41.484375 3.457031 L 40.738281 3.742188 L 39.507812 4.199219 L 38.757812 4.484375 L 37.660156 4.910156 L 36.429688 5.367188 L 36.210938 5.394531 L 36.167969 5.253906 L 36.476562 5.140625 L 36.695312 5.023438 L 37.132812 4.882812 L 37.265625 4.882812 L 37.308594 4.796875 L 37.484375 4.738281 L 37.925781 4.570312 L 38.1875 4.539062 L 38.234375 4.453125 L 38.453125 4.453125 L 38.496094 4.367188 L 38.628906 4.367188 L 38.671875 4.285156 L 38.757812 4.3125 L 38.757812 4.253906 L 39.199219 4.082031 L 39.289062 4.082031 L 39.332031 4.027344 L 39.550781 3.941406 L 39.769531 3.941406 L 39.859375 3.828125 L 40.296875 3.65625 L 41 3.425781 L 41.175781 3.398438 L 41.21875 3.339844 L 41.441406 3.339844 Z M 41.484375 3.3125 "/>
<path style=" stroke:none;fill-rule:nonzero;fill:rgb(93.333334%,39.215687%,23.529412%);fill-opacity:1;" d="M 50.492188 4.425781 L 50.582031 4.425781 L 50.582031 4.484375 L 50.667969 4.484375 L 50.582031 4.625 L 49.835938 4.910156 L 48.910156 5.253906 L 47.769531 5.683594 L 46.539062 6.136719 L 45.4375 6.539062 L 44.867188 6.765625 L 44.5625 6.878906 L 44.429688 6.878906 L 44.515625 6.765625 L 44.691406 6.652344 L 44.957031 6.625 L 45 6.539062 L 45.21875 6.480469 L 45.351562 6.421875 L 45.394531 6.367188 L 45.617188 6.339844 L 45.660156 6.28125 L 45.746094 6.308594 L 45.789062 6.28125 L 45.96875 6.222656 L 46.054688 6.253906 L 46.054688 6.195312 L 46.320312 6.109375 L 46.40625 6.109375 L 46.449219 6.023438 L 46.582031 6.023438 L 46.582031 5.9375 L 46.671875 5.9375 L 46.714844 5.882812 L 46.757812 5.910156 L 46.933594 5.765625 L 47.152344 5.683594 L 47.417969 5.597656 L 47.898438 5.425781 L 48.078125 5.339844 L 48.25 5.3125 L 48.296875 5.253906 L 48.515625 5.195312 L 48.691406 5.140625 L 48.824219 5.140625 L 48.824219 5.082031 L 48.953125 5.082031 L 48.953125 5.023438 L 49.21875 4.96875 L 49.21875 4.910156 L 49.484375 4.824219 L 49.921875 4.625 L 50.140625 4.597656 L 50.1875 4.511719 Z M 50.492188 4.425781 "/>
<path style=" stroke:none;fill-rule:nonzero;fill:rgb(93.333334%,39.215687%,23.529412%);fill-opacity:1;" d="M 47.375 10.246094 L 47.59375 10.246094 L 47.59375 10.304688 L 46.492188 10.703125 L 45.746094 10.988281 L 45.085938 11.21875 L 44.824219 11.1875 L 44.382812 11.019531 L 43.902344 10.847656 L 43.417969 10.648438 L 42.933594 10.476562 L 42.890625 10.390625 L 42.976562 10.363281 L 42.976562 10.417969 L 43.109375 10.390625 L 43.550781 10.503906 L 43.550781 10.5625 L 43.769531 10.617188 L 44.121094 10.789062 L 44.339844 10.847656 L 44.339844 10.902344 L 44.648438 10.902344 L 44.957031 10.933594 L 45.484375 10.847656 L 45.746094 10.734375 L 45.96875 10.675781 L 46.363281 10.5625 L 46.539062 10.5625 L 46.539062 10.476562 L 46.625 10.476562 L 46.671875 10.417969 L 46.800781 10.445312 L 47.195312 10.363281 Z M 47.375 10.246094 "/>
<path style=" stroke:none;fill-rule:nonzero;fill:rgb(93.333334%,39.215687%,23.529412%);fill-opacity:1;" d="M 45.703125 1.742188 L 45.746094 1.859375 L 43.417969 2.742188 L 42.320312 3.140625 L 41.878906 3.3125 L 41.570312 3.285156 L 41.570312 3.226562 L 41.703125 3.226562 L 41.703125 3.140625 L 42.1875 2.972656 L 42.496094 2.855469 L 42.976562 2.65625 L 43.59375 2.457031 L 43.726562 2.398438 L 43.859375 2.398438 L 43.859375 2.34375 L 44.210938 2.230469 L 44.5625 2.144531 L 44.648438 2.171875 L 44.648438 2.113281 L 44.914062 2.058594 L 45.085938 2 L 45.21875 2 L 45.175781 1.914062 Z M 45.703125 1.742188 "/>
<path style=" stroke:none;fill-rule:nonzero;fill:rgb(93.333334%,39.215687%,23.529412%);fill-opacity:1;" d="M 51.371094 4.367188 L 51.722656 4.398438 L 51.945312 4.453125 L 51.945312 4.511719 L 52.117188 4.539062 L 52.515625 4.710938 L 53.085938 4.910156 L 53.304688 4.96875 L 53.832031 5.167969 L 53.832031 5.226562 L 54.007812 5.226562 L 54.007812 5.28125 L 54.140625 5.3125 L 54.097656 5.394531 L 54.226562 5.425781 L 54.226562 5.511719 L 53.964844 5.480469 L 53.171875 5.167969 L 52.117188 4.769531 L 51.371094 4.511719 L 51.371094 4.453125 L 51.285156 4.425781 Z M 51.371094 4.367188 "/>
<path style=" stroke:none;fill-rule:nonzero;fill:rgb(92.941177%,39.215687%,23.529412%);fill-opacity:1;" d="M 56.734375 11.1875 L 56.867188 11.21875 L 56.953125 11.1875 L 57.085938 11.21875 L 57.085938 11.304688 L 56.46875 11.503906 L 55.28125 11.960938 L 54.625 12.214844 L 54.449219 12.1875 L 54.492188 12.046875 L 54.84375 11.929688 L 54.886719 11.875 L 55.109375 11.816406 L 55.238281 11.730469 L 55.460938 11.675781 L 55.722656 11.558594 L 55.8125 11.558594 L 55.8125 11.503906 L 55.941406 11.417969 L 56.117188 11.390625 L 56.292969 11.332031 L 56.292969 11.273438 L 56.558594 11.21875 L 56.6875 11.21875 Z M 56.734375 11.1875 "/>
<path style=" stroke:none;fill-rule:nonzero;fill:rgb(92.941177%,38.82353%,23.529412%);fill-opacity:1;" d="M 53.523438 16.953125 L 53.570312 17.011719 L 53.703125 17.011719 L 53.703125 16.953125 L 53.789062 16.980469 L 53.523438 17.183594 L 52.648438 17.496094 L 51.765625 17.839844 L 51.460938 17.953125 L 51.242188 17.953125 L 51.242188 17.808594 L 51.371094 17.808594 L 51.414062 17.753906 L 51.59375 17.722656 L 51.679688 17.722656 L 51.855469 17.609375 L 51.898438 17.609375 L 51.898438 17.554688 L 52.164062 17.523438 L 52.207031 17.4375 L 52.46875 17.351562 L 52.558594 17.351562 L 52.601562 17.265625 L 52.691406 17.324219 L 52.734375 17.265625 L 52.820312 17.265625 L 52.867188 17.210938 L 53.128906 17.183594 L 53.128906 17.097656 L 53.351562 17.066406 L 53.394531 17.011719 L 53.523438 17.011719 Z M 53.523438 16.953125 "/>
<path style=" stroke:none;fill-rule:nonzero;fill:rgb(92.156863%,38.82353%,23.529412%);fill-opacity:1;" d="M 46.140625 6.167969 L 46.320312 6.222656 L 45.308594 6.59375 L 44.5625 6.878906 L 44.429688 6.878906 L 44.515625 6.765625 L 44.691406 6.652344 L 44.957031 6.625 L 45 6.539062 L 45.21875 6.480469 L 45.351562 6.421875 L 45.394531 6.367188 L 45.617188 6.339844 L 45.660156 6.28125 L 45.746094 6.308594 L 45.789062 6.28125 L 45.96875 6.222656 L 46.054688 6.253906 L 46.054688 6.195312 Z M 46.140625 6.167969 "/>
<path style=" stroke:none;fill-rule:nonzero;fill:rgb(91.764706%,38.82353%,23.529412%);fill-opacity:1;" d="M 50.710938 18.09375 L 50.757812 18.152344 L 50.710938 18.238281 L 49.921875 18.523438 L 49.613281 18.636719 L 49.394531 18.664062 L 49.4375 18.578125 L 49.527344 18.578125 L 49.527344 18.496094 L 49.789062 18.4375 L 50.054688 18.351562 L 50.1875 18.324219 L 50.1875 18.238281 L 50.449219 18.179688 L 50.582031 18.125 L 50.667969 18.125 Z M 50.710938 18.09375 "/>
<path style=" stroke:none;fill-rule:nonzero;fill:rgb(92.941177%,39.215687%,23.529412%);fill-opacity:1;" d="M 40.34375 8.308594 L 40.5625 8.308594 L 40.515625 8.394531 L 39.8125 8.648438 L 39.640625 8.648438 L 39.640625 8.59375 L 39.550781 8.5625 L 39.8125 8.449219 L 39.945312 8.449219 L 39.945312 8.394531 L 40.296875 8.363281 Z M 40.34375 8.308594 "/>
<path style=" stroke:none;fill-rule:nonzero;fill:rgb(92.156863%,38.82353%,23.529412%);fill-opacity:1;" d="M 45.703125 1.742188 L 45.746094 1.859375 L 45 2.144531 L 44.914062 2.144531 L 45 2.027344 L 45.21875 2 L 45.175781 1.914062 Z M 45.703125 1.742188 "/>
<path style=" stroke:none;fill-rule:nonzero;fill:rgb(91.764706%,38.82353%,23.529412%);fill-opacity:1;" d="M 52.425781 12.902344 L 52.558594 12.929688 L 52.515625 13.015625 L 52.074219 13.1875 L 51.945312 13.1875 L 52.03125 13.074219 L 52.117188 12.988281 L 52.339844 13.015625 L 52.339844 12.929688 Z M 52.425781 12.902344 "/>
<path style=" stroke:none;fill-rule:nonzero;fill:rgb(93.333334%,39.215687%,23.529412%);fill-opacity:1;" d="M 35.023438 27.769531 L 35.199219 27.824219 L 34.890625 27.941406 L 34.539062 27.941406 L 34.539062 27.882812 L 34.847656 27.855469 L 34.847656 27.796875 Z M 35.023438 27.769531 "/>
<path style=" stroke:none;fill-rule:nonzero;fill:rgb(92.54902%,38.82353%,23.529412%);fill-opacity:1;" d="M 46.539062 1.429688 L 46.714844 1.457031 L 46.539062 1.574219 L 46.273438 1.65625 L 46.140625 1.628906 L 46.1875 1.574219 L 46.273438 1.574219 L 46.273438 1.515625 Z M 46.539062 1.429688 "/>
<path style=" stroke:none;fill-rule:nonzero;fill:rgb(92.156863%,38.82353%,23.529412%);fill-opacity:1;" d="M 42.976562 7.335938 L 43.109375 7.367188 L 43.109375 7.421875 L 42.757812 7.566406 L 42.582031 7.566406 L 42.582031 7.507812 L 42.714844 7.421875 L 42.933594 7.367188 Z M 42.976562 7.335938 "/>
<path style=" stroke:none;fill-rule:nonzero;fill:rgb(92.941177%,39.215687%,23.529412%);fill-opacity:1;" d="M 6.0625 27.796875 L 6.285156 27.796875 L 6.109375 27.910156 L 5.976562 27.941406 L 5.449219 27.941406 L 5.449219 27.910156 L 5.890625 27.855469 Z M 6.0625 27.796875 "/>
<path style=" stroke:none;fill-rule:nonzero;fill:rgb(90.588236%,38.431373%,23.921569%);fill-opacity:1;" d="M 46.140625 6.167969 L 46.320312 6.222656 L 45.835938 6.394531 L 45.746094 6.394531 L 45.789062 6.28125 L 45.96875 6.222656 L 46.054688 6.253906 L 46.054688 6.195312 Z M 46.140625 6.167969 "/>
<path style=" stroke:none;fill-rule:nonzero;fill:rgb(91.764706%,38.82353%,23.529412%);fill-opacity:1;" d="M 51.371094 13.300781 L 51.503906 13.328125 L 51.460938 13.414062 L 51.152344 13.527344 L 50.976562 13.5 L 51.019531 13.445312 L 51.285156 13.359375 Z M 51.371094 13.300781 "/>
<path style=" stroke:none;fill-rule:nonzero;fill:rgb(91.37255%,38.431373%,23.921569%);fill-opacity:1;" d="M 47.375 10.246094 L 47.59375 10.246094 L 47.59375 10.304688 L 47.109375 10.476562 L 47.023438 10.476562 L 47.109375 10.363281 L 47.195312 10.363281 Z M 47.375 10.246094 "/>
</g>
</svg>
