<?xml version="1.0" encoding="UTF-8"?>
<svg version="1.1" viewBox="0 0 2048 981" width="670" height="321" xmlns="http://www.w3.org/2000/svg">
<path transform="translate(1018,3)" d="m0 0h16l8 2 16 8 17 9 15 10v4l-10 7-20 11-24 14-26 15-22 13-25 14-27 16-25 14-22 13-46 27-23 13h-2v2l6 2 19 11 24 14 16 9h6l16-8 10-7 17-9 56-32 26-15 25-14 13-8 12-7 18-10 14-9 13-8 20-11 24-14 8-4 9 3 19 11 23 13 24 14 42 24 19 11 25 14 23 14 12 9 4 5v5l-9 7-24 14-15 9-26 15-17 10-26 15-18 10-21 12-29 17-19 11-17 10-23 13-29 17-25 14-15 9-18 10-4 2-6-1-10-6-11-6-11-7-18-10-12-7v-3l11-7 26-15 22-13 14-8 18-11 18-10 10-6 21-12 15-9 11-6 17-10 18-10 18-11 15-8 13-8 19-10 7-3-1-3-15-9-22-13-23-12-6-3-5 1-13 8-24 14-23 13-42 24-26 15-24 14-45 26-21 12-17 10-25 14-13 6-5-2-23-13-19-11-25-14-10-7-20-11-14-8-18-10h-3v78l5 2 22 12 23 13 27 16 24 14 23 13 21 12 16 9 24 14 25 14 13 8 28 16 13 8 10 5 5-1 19-10 14-8 13-8 18-10 24-14 11-6 8-5 27-15 15-9 12-7 16-9 15-9 22-13 14-8 25-15 22-12 24-14 25-14 14-9 3 1v216l-2 13-7 11-7 7-10 7-24 13-17 10-18 10-17 10-15 9-21 12-22 13-16 9-15 9-18 10-17 10-21 12-22 13-16 9-14 8-15 9-16 8-8 2h-13l-15-5-25-14-21-12-10-6-9-5-16-10-16-9-36-21-16-9-21-12-24-14-17-10-11-6-17-10-23-13-18-10-25-15-10-9-7-12-1-3v-58l2-8 14 8 45 25 52 30 15 9 23 13 26 15 24 14 23 13 44 26 16 9 9 6 20 11 18 11 11 6 5-1 15-8 8-5 10-5 16-9 24-14 14-8 9-5 14-9 13-7 10-6 19-11 33-18 11-7 21-12 18-11 20-11 17-10 1-4 1-74-9 3-24 14-27 16-29 17-43 25-25 14-24 14-21 12-15 9-18 10-19 11-21 12-6-2-20-11-13-8-21-12-29-17-10-6-17-9-11-7-27-15-13-8-11-6-18-10-15-9-11-7-19-10-11-7-29-16-13-8-12-7-22-12-15-9-3-3v-144l4-11 6-9 11-9 26-15 22-12 22-13 14-8 10-6 22-13 21-12 20-12 20-11 65-38 16-9 20-12 19-10 10-5z" fill="#DB5F3F"/>
<path transform="translate(36,787)" d="m0 0h117l-2 11-7 22-3 6-101 1v35l1 1 102 1 5 4 5 11 2 8 1 30v35l-3 12-5 8-9 6-8 3h-113l-16-1-2-2v-36l1-1 52-2 49-1 11-1 1-4 1-26-1-5h-94l-9-4-6-7-4-8v-56l1-25 7-8 7-6z" fill="#DB5F3F"/>
<path transform="translate(1910,838)" d="m0 0h137l1 2-11 33-3 4-63 1h-37l1 11h98l9 7 6 9v56l-5 10-9 6-8 3-6 1h-121l-4-1-1-6v-30l1-2 5-1 23-1 45-1h42l1-10h-97l-10-6-7-8-3-8-1-6v-32l2-15 6-10z" fill="#DB5F3F"/>
<path transform="translate(1036,837)" d="m0 0h120l9 6 6 10 3 9 1 6v23l-3 19-4 11-4 4-12 4h-81l-1-1v-37l2-2 61-1v-9l-52-1-23-1v43l1 20h79l8 1-4 17-6 16-4 5-5 2h-92v-2l-5-2-11-10-1-3v-109l4-7 10-9z" fill="#DB5F3F"/>
<path transform="translate(1740,837)" d="m0 0h113l9 9 5 10 3 14v29l-4 15-5 8-6 5-5 2h-85v-20l1-16 2-4 59-1 1-10h-52l-23-1v53l1 9 1 1h66l18 1 1 4-3 14-5 15-3 4-7 2-28 1h-52l-10-1-15-10-3-4-1-23v-86l3-6 9-9 6-4z" fill="#DB6040"/>
<path transform="translate(1592,837)" d="m0 0h76l7 3 5 4 7 10 2 5v95l-4 13-4 6-5 4-11 4h-115l-5-3-12-16-1-3v-98l4-10 7-8 8-5zm-20 40-1 8v16l1 37 2 3 4 1 69-1 2-3 1-5v-55l-1-1z" fill="#DB5F40"/>
<path transform="translate(292,836)" d="m0 0h113l11 8 8 10 3 7v81l-1 36-1 1-7 1h-31l-1-2v-16l1-23v-61l-77-1 1 60 1 3h48l4-1 8 4-1 9-7 19-5 8-4 2h-59l-9-2-6-4-7-8-3-6-1-59v-38l2-11 4-6 7-6z" fill="#DB5F3F"/>
<path transform="translate(877,837)" d="m0 0h97l8 4 7 8 3 5v109l-7 11-7 4-9 3h-78l-1-2 1-10 6-18 5-10 2-1h46l2-6 1-8v-22l-1-27h-74l-1 8v96h-39l-1-11 1-111 4-10 6-8 3-3z" fill="#DB5F40"/>
<path transform="translate(1355,787)" d="m0 0h30l7 1 1 1 1 47h95l11 8 6 8 2 12v115h-38l-1-4-1-97-74-1-1 101-3 1h-35l-1-2v-189z" fill="#DB6040"/>
<path transform="translate(658,836)" d="m0 0h33l5 1 1 77 1 26 74 1 1-60v-36l1-8h37l1 9v110l-3 10-4 6-5 4-8 4-4 1h-114l-9-7-5-6-2-5-1-7v-111z" fill="#DB5F40"/>
<path transform="translate(1224,836)" d="m0 0h98l4 1-1 9-6 17-6 11-4 3h-70l-1 3v54l2 6 86 1 1 6v32l-5 2h-100l-8-2-8-6-5-6-3-10v-95l3-12 7-8 8-4z" fill="#DB6040"/>
<path transform="translate(182,811)" d="m0 0h37l1 24 20 1 6 2-1 5-6 12-5 16-7 5-7 2 2 55 1 7h22v15l-1 23-1 2-3 1h-40l-11-8-6-7-3-10v-76l1-68z" fill="#DB6040"/>
<path transform="translate(569,812)" d="m0 0 36 1 1 1 1 21 18 1 4 1-1 11-6 18-5 8-8 4h-2l1 63 24-1v40l-10 1h-30l-9-3-9-6-5-5-2-4v-125l1-25z" fill="#DB5F3F"/>
<path transform="translate(508,836)" d="m0 0h40l3 2v9l-6 16-6 12-2 2h-45l-1 85-1 18-1 1h-15l-17-1-5-2-1-5v-114l6-12 8-8 2-1 9-1z" fill="#DB6040"/>
<path transform="translate(690,514)" d="m0 0h5l4 3v2l4 2 9 5 13 6 1 2 5 1 1 2 6 2 9 6 2-1 1 2 16 8v2l6 2 2 1v2l5 1 3 3 3 1 1 2 6 2 1 2h2l4 4 6 3 10 4 6 2v2l6 1 5 5 4 1v2l6 2 5 4 3 1v2l5 1 4 2 4 4h3v2l4 2 8 3 6 4 11 6 4 3 8 4 1 2 7 2 3 2v2h2v2l6 2 7 4v2l5 2 5 3 5 1 9 6h3v2l4 2 5 2v2l7 2 2 2 5 2 4 2 10 6 9 4 1 2 19 2h6l9-3 18-9 15-8 6-2 2-2 4-2 11-4 7-3 4 1h-3v3l-17 10-18 10-15 9-16 8-8 2h-13l-15-5-25-14-21-12-10-6-9-5-16-10-16-9-36-21-16-9-21-12-24-14-17-10-11-6-17-10-23-13-18-10-25-15-8-9z" fill="#EE643C"/>
<path transform="translate(685,343)" d="m0 0 3 4 1 7 5 2 13 8 10 5 11 5 7 3 5 2v2l7 2v2l4 1v2l6 1v2h2l4 4 7 5 14 7 2 2 6 2 10 6 6 3v2h5l3 3 3 1v2l4 1 4 3 5 2 6 3v2l6 1 1 2 5 2 20 12 11 6 6 3v2l6 2 8 6 8 3v2l3 1v2h4l1 3h6l4 4 6 3 10 7 6 3 7 4 4 1v2l5 2 10 5 4 4 14 7 3 3 8 4 7 2 10 4h9l8-3 8-4 7-5 5-1 4-2h2l1-3h3l1-2 5-2 9-6 4-1 3 3-4 4-15 8-22 13-23 13-6-2-20-11-13-8-21-12-29-17-10-6-17-9-11-7-27-15-13-8-11-6-18-10-15-9-11-7-19-10-11-7-29-16-13-8-12-7-22-12-13-8-4-8 1-6z" fill="#EE643C"/>
<path transform="translate(1352,198)" d="m0 0 3 3v2l-20 12-22 13-26 15-17 10-26 15-18 10-21 12-29 17-19 11-15 9h-6l2-5 4-1 1-2 1 1 1-2h3l1-2 2 1v-2l3-3 5-1 1-2h3v-2l5-2 8-6h2v-2l4-1 9-5 4-1 2-3h3l1-2v2h2l1-3h2v-2l2 1 5-5 5-2 4-2h3v-2h2l1-3 5-2 4-2 2 1 1-3h3l1-2 2 1v-2l4-3 2 1v-2l6-4 11-6 8-5h2v-2l12-6 10-7 8-4 7-5 8-4 5-3h4l1-2 4-1 4 1 4-5v-2z" fill="#EE643C"/>
<path transform="translate(753,231)" d="m0 0 8 2 15 8 4 2 12 7 6 3v2h4v2l8 4 5 3v2l5 1 10 6 9 6h2v2l5 2 9 5h2v2l4 1 7 4 8 3 10 4h10v6l-10 5-5-2-23-13-19-11-25-14-10-7-20-11-14-8-18-10-1-3h2z" fill="#EE643C"/>
<path transform="translate(944,116)" d="m0 0h2l-2 5-17 10-28 16-17 10-25 15-28 16-5 1-1-5 7-4 5-4 10-5h3l1-3 4-2 10-6 6-1 1-3h5l1-3h3l1-3 2 1v-2l10-6h2l1-2 5-3h5l2-4 10-6 16-8 4-1 1-2h5z" fill="#EE643C"/>
<path transform="translate(1149,155)" d="m0 0h2v2h2l-2 5-17 10-21 12-26 15-28 16-25 14-13 8-7 4h-3l2-4 4-4 6-1 1-3 5-2 3-2 1-2 5-1 1-2 2 1 1-1 4-2 2 1v-2l6-3h2l1-3h3v-3h2l1-2 1 1 4-5 5-3 6-3 11-6 4-3 4-1 1-2 5-2 4-2h3v-2h3v-2l6-2v-2l6-3 10-7 5-1 1-3z" fill="#EE643C"/>
<path transform="translate(1078,359)" d="m0 0h5v2l-25 14-17 10-15 8-6-1-10-6-11-6-11-7-11-6-1-3 2-1v2l3-1 10 4v2l5 2 8 6 5 2v2h7l7 1 12-3 6-4 5-2 9-4h4v-3h2l1-2 3 1 9-3z" fill="#EE643C"/>
<path transform="translate(1040,61)" d="m0 0 1 4-53 31-25 14-10 6-7-1v-2h3v-3l11-6 7-4 11-7 14-7 3-2h3v-2l8-4 8-3 2 1v-2l6-2 4-2h3l-1-3z" fill="#EE643C"/>
<path transform="translate(1169,153)" d="m0 0 8 1 5 2v2l4 1 9 6 13 7 5 2 12 7v2h4v2l3 1-1 3 3 1v3l-6-1-18-11-24-14-17-9v-2l-2-1z" fill="#EE643C"/>
<path transform="translate(1291,392)" d="m0 0 3 1 2-1 3 1v3l-14 7-27 16-15 9-4-1 1-5 8-4 1-2 5-2 3-3 5-2 6-4h2v-2l3-3 4-1 4-2v-2l6-2h3z" fill="#ED643C"/>
<path transform="translate(1218,594)" d="m0 0 1 2h3v-2l2 1-6 7-20 11-20 12-7 4h-5v-5h3l1-2 4-1h2l4-4h1v-2l6-1 1-3 6-3h2l1-3 2 2 1-2h2l1-2 6-1v-3l5-1 1-2h3z" fill="#ED633C"/>
<path transform="translate(1051,215)" d="m0 0m-1 1 4 2-23 13-17 10h-3l2-4 4-4 6-1 1-3 5-2 3-2 1-2 5-1 1-2 2 1 1-1 4-2 2 1v-2z" fill="#EB633C"/>
<path transform="translate(1154,634)" d="m0 0 1 2-1 3-18 10-7 4-5 1 1-3h2v-3l6-2 6-3 3-1v-3l6-2 3-2h2z" fill="#EA633C"/>
<path transform="translate(918,291)" d="m0 0h5l-1 3-16 9h-4v-2l-2-1 6-4h3v-2l8-1z" fill="#ED643C"/>
<path transform="translate(1040,61)" d="m0 0 1 4-17 10h-2l2-4 5-1-1-3z" fill="#EB633C"/>
<path transform="translate(1193,452)" d="m0 0 3 1-1 3-10 6h-3l2-4 2-3 5 1v-3z" fill="#EA633C"/>
<path transform="translate(797,973)" d="m0 0 4 2-7 4h-8v-2l7-1v-2z" fill="#EE643C"/>
<path transform="translate(1059,50)" d="m0 0 4 1-4 4-6 3-3-1 1-2h2v-2z" fill="#EC633C"/>
<path transform="translate(978,257)" d="m0 0 3 1v2l-8 5h-4v-2l3-3 5-2z" fill="#EB633C"/>
<path transform="translate(138,974)" d="m0 0h5l-4 4-3 1h-12v-1l10-2z" fill="#ED643C"/>
<path transform="translate(1051,215)" d="m0 0m-1 1 4 2-11 6h-2l1-4 4-2 2 1v-2z" fill="#E7623D"/>
<path transform="translate(1169,466)" d="m0 0 3 1-1 3-7 4-4-1 1-2 6-3z" fill="#EA633C"/>
<path transform="translate(1078,359)" d="m0 0h5v2l-11 6h-2l2-4h2z" fill="#E9623D"/>
</svg>
