<?xml version="1.0" encoding="UTF-8"?>
<svg version="1.1" viewBox="0 0 2048 445" width="1070" height="233" xmlns="http://www.w3.org/2000/svg">
<path transform="translate(224,27)" d="m0 0h7l10 4 7 4 10 7-5 5-6 4-11 6-16 9-15 9-18 10-14 8-6 4-10 5-8 5-19 11 4 3 15 9 9 5h6l10-6 9-5 12-7 32-18 15-9 16-9 10-6 8-5 16-8 16 8 16 9 14 8 23 13 17 10 9 7v4l-13 9-11 6-9 5-14 8-6 4-10 5-19 11-13 8-11 6-14 8-24 14-15 9-6-2-11-6-16-10 1-3 8-5 21-12 13-8 11-6 23-13 10-6 17-10 23-13-2-4-16-9-10-5-4 1-14 7-7 4-19 11-35 20-11 6-16 10-8 4-4 3-16 8-16-9-18-10-7-4-15-9-8-5-1 3v34l16 8 16 9 13 8 10 6 8 4 14 8 29 17 9 5 12 7 7 1 10-5 7-5 6-3 22-12 13-8 19-11 16-9 6-4 9-5 49-28 5-1v105l-4 8-5 5-9 6-27 15-15 9-17 10-11 6-9 5-14 8-17 10-8 5-11 6-12 6h-12l-17-9-14-8-4-3-8-4-14-8-15-9-11-6-18-11-11-6-14-8-23-13-8-9-2-6v-13l1-15 5 1 23 13 52 30 27 15 15 9 21 12 12 7 6 4h6l16-9 17-10 14-8 8-5 6-3 23-13 11-7 6-3 19-11 6-3 2-2 1-5v-31l-10 5-6 4-11 6-21 12-17 10-7 4-11 6-16 9-13 8-18 10-5-1-10-5-7-4-15-9-14-8-10-6-11-6-21-12-17-10-19-11-23-13-9-5-6-4v-53l1-19 7-9 10-7 12-6 35-20 17-10 9-5 11-7 8-4 15-9 7-4 16-9 10-5z" fill="#E34B43"/>
<path transform="translate(440,122)" d="m0 0h105l-9 27-2 3h-40l-36-1 1 27 76 1 5 5 3 4 2 8 1 27v22l-2 9-6 8-8 4-3 1h-40l-54-1-5-2v-26l4-1 82-2 1-27h-74l-9-8-3-6-1-8 1-52 7-8z" fill="#E34B43"/>
<path transform="translate(1868,159)" d="m0 0 92 1 9 1-3 9-5 16-1 3-20 1-58 1 3 6 65 1 10 2 6 5 3 5 1 19v16l-2 10-7 8-9 3h-99l-1-3v-21l1-4 2-1 16-1 44-1h25v-6h-68l-6-2-8-4-6-10v-37l3-7 6-7z" fill="#E34B43"/>
<path transform="translate(1089,159)" d="m0 0h72l5 3 8 8v85l-5 7-8 4-4 1h-56l-4-1 2-10 5-15 5-5h35v-43l-1-3h-55l-1 113-1 1h-28v-101l1-29 5-10 6-4z" fill="#E34B43"/>
<path transform="translate(1732,159)" d="m0 0h89l5 3 7 10 1 3v37l-5 10-6 5-7 2h-48l-13-1v-19l1-9 1-1 13-1h33l-1-7-54-1-1 46h52l13 1-1 11-4 12-5 6h-71l-9-5-6-6v-82l5-5 9-8z" fill="#E34B43"/>
<path transform="translate(1208,159)" d="m0 0h89l5 3 6 7 3 8v29l-3 14-5 5-8 3-12 1h-32l-17-1-2-2 1-25 3-2 40-1 5-2-1-4-2-1-54-1v42l1 3 65 1 1 2-7 22-5 5-4 2h-67l-10-6-5-7 1-83 6-7z" fill="#E34B43"/>
<path transform="translate(1631,159)" d="m0 0h52l6 3 9 11 1 4v65l-2 12-6 9-11 4h-83l-7-3-8-9-2-5v-73l4-8 7-7 5-2zm-20 30v48h55l2-3v-42l-1-2-9-1z" fill="#E34B43"/>
<path transform="translate(649,158)" d="m0 0h84l9 7 7 10v88l-2 2-27 1-1-1v-73l-1-1-15-1h-41l1 44 1 2h40l5 3-1 6-6 15-4 6-11 1h-29l-13-1-6-4-6-7-1-2-1-16v-56l2-11 7-7z" fill="#E34B43"/>
<path transform="translate(1446,122)" d="m0 0h29l1 1 1 36 70-1 9 6 6 8 1 17v75l-1 1h-29l-1-74-1-1h-54l-1 74-2 1h-27l-1-1-1-141z" fill="#E34B43"/>
<path transform="translate(923,159)" d="m0 0h24l5 1v77l51-1 5-1 1-9 1-66h28l1 47v43l-5 10-5 4-9 3h-79l-7-1-6-4-6-11v-91z" fill="#E34B43"/>
<path transform="translate(1347,159)" d="m0 0h39l40 1-1 7-6 16-6 6h-54l1 47 66 1 1 1v26l-1 2-45 1h-31l-8-1-8-6-5-10-1-6v-49l1-17 4-11 7-6z" fill="#E34B43"/>
<path transform="translate(565,140)" d="m0 0h23l5 1v16l9 1 10 2v4l-3 7-4 13-10 7v46l8-1h9v26l-2 4-2 1h-27l-7-3-5-4-5-7-1-3v-47l1-62z" fill="#E34B43"/>
<path transform="translate(855,141)" d="m0 0h29l1 1v15l17 3-1 8-6 16-9 8v45l17-1 1 1v27l-1 2-7 1h-22l-10-4-7-5-2-3z" fill="#E34B43"/>
<path transform="translate(784,159)" d="m0 0h46l13 1 1 4-7 19-6 7h-33l-1 74-1 2h-19l-10-2v-89l4-7 5-6z" fill="#E34B43"/>
<path transform="translate(1063,166)" d="m0 0 1 3 1 4v10l-1 6-1 21-1 68-1 7-1 6-1 12h23v1h-24v-101l1-29z" fill="#F5524E"/>
<path transform="translate(565,140)" d="m0 0h23v1l-22 1 3 11 1 13-1 7-1 20v28 3l-1 15-1 4v7l5 9 8 5 29 2v1h-27l-7-3-5-4-5-7-1-3v-47l1-62z" fill="#F55450"/>
<path transform="translate(93,251)" d="m0 0 5 2 22 12 22 13 27 15 11 7-1 2-5-3-11-4-13-4-9-6-2-4h-3v-2l-6-1-7-2v-2l-8-1-9-6-1-7-2-1-2-2-7-4z" fill="#F4514D"/>
<path transform="translate(1585,168)" d="m0 0 1 2 1 5 2 6-2 14-2 34-1 10-1 3-1 9-2-1v-73l4-8z" fill="#F55955"/>
<path transform="translate(151,208)" d="m0 0 5 2 16 9 29 17 9 5 12 7 7 1 10-5 7-5 6-3 22-12 6-4 2 1-9 6-4 1v2l-12 6-9 5h-2l-1 2-9 6-5 2h-7l-8-3-9-6-6-1v-2h-6l-6-4v-2l-6-2-4-2v-2l-6-2-2-4h-2l-3-3-10-4v-2l-4-2z" fill="#F5524E"/>
<path transform="translate(97,178)" d="m0 0 5 1 16 9 14 8 10 6 6 4-2 1h-10l-10-3-10-10-5-4v-2h-2l-2-3-7-4z" fill="#F5524E"/>
<path transform="translate(1717,172)" d="m0 0 3 1 2 13-2 15v15l-1 21-1 13-2-1v-76z" fill="#F5524E"/>
<path transform="translate(632,173)" d="m0 0 1 3 3-3h2l1 2v9l-2 11-3-3v20l-1 27-2-2v-56z" fill="#F5524E"/>
<path transform="translate(1332,169)" d="m0 0 2 4v13l-3 19-1 31v14h-1l-1-6v-49l1-17z" fill="#F5524E"/>
<path transform="translate(1490,186)" d="m0 0 24 1 19-1 2 4-1 51h-1l-1-50-1-1-49-1 1-2z" fill="#F5524E"/>
<path transform="translate(65,119)" d="m0 0 1 2-2 4 2 5-1 11-1 4-1 43-1 7h-1v-53l1-19z" fill="#F5524E"/>
<path transform="translate(767,175)" d="m0 0h2l2 6 1 4-2 4-2 75h-1z" fill="#F5524E"/>
<path transform="translate(855,141)" d="m0 0 4 1h-3l2 27 1 2-1 10-2 52h-1z" fill="#F5524E"/>
<path transform="translate(1028,262)" d="m0 0 3 1-11 4h-79l-3-2h66l6-1h12z" fill="#F5534F"/>
<path transform="translate(1668,194)" d="m0 0 3 1 1 3v15l-2 10-1 9h-1z" fill="#F5524E"/>
<path transform="translate(1753,187)" d="m0 0 26 1h16l6 1v1h-47l-6-1v-1z" fill="#F55753"/>
<path transform="translate(922,160)" d="m0 0h1l2 21-1 15-1 30h-1z" fill="#F5524E"/>
<path transform="translate(1853,175)" d="m0 0h1l1 16v6h-2l1 10v8l-2-2v-37z" fill="#F5524E"/>
<path transform="translate(137,123)" d="m0 0 21 12h6l9-5-1 3-9 5-7-1-4-3-9-3-6-6z" fill="#F5524E"/>
<path transform="translate(280,220)" d="m0 0 2 1-9 6-4 1v2l-12 6-9 5h-2l-1 2v-3l16-9 18-10z" fill="#F55450"/>
<path transform="translate(1490,186)" d="m0 0 23 1 2 2h-33l1-2z" fill="#F4514D"/>
<path transform="translate(65,119)" d="m0 0 1 2-2 4 2 5-1 11-3 3-1-2 1-19z" fill="#F55753"/>
<path transform="translate(185,303)" d="m0 0 11 6 18 10 7 5-1 2-11-7-6-3-8-5-10-6z" fill="#F5524E"/>
<path transform="translate(1541,158)" d="m0 0h6l9 6 1 3-5-2v-2l-6-1v-2h-5z" fill="#F3514D"/>
<path transform="translate(196,116)" d="m0 0v3l-3 3-16 8 2-4 16-9z" fill="#F5524E"/>
</svg>
