<svg version="1.1" id="Layer_1" xmlns="http://www.w3.org/2000/svg" xmlns:xlink="http://www.w3.org/1999/xlink" x="0px" y="0px"
	 width="100%" viewBox="0 0 175 178" enable-background="new 0 0 175 178" xml:space="preserve">
<path fill="#FEFCFC" opacity="1.000000" stroke="none" 
	d="
M1.000000,59.000000 
	C1.000000,39.679211 1.000000,20.358418 1.000000,1.018813 
	C59.282944,1.018813 117.565895,1.018813 175.924423,1.018813 
	C175.924423,60.244373 175.924423,119.488869 175.924423,178.866684 
	C117.666847,178.866684 59.333473,178.866684 1.000050,178.873581 
	C1.000000,149.566086 1.000000,120.251701 1.266591,90.465309 
	C1.710757,89.985611 1.888332,89.977928 2.279282,90.021042 
	C2.492657,90.071823 2.929926,90.106239 3.102192,90.400322 
	C15.738209,97.837730 28.201958,104.981049 40.889229,112.382881 
	C42.347107,113.175407 43.581467,113.709435 44.854378,114.204659 
	C44.892933,114.165855 44.783825,114.157997 44.894852,114.394379 
	C45.332184,114.727913 45.658485,114.825058 46.149937,115.126892 
	C46.759136,115.599327 47.203182,115.867058 47.838890,116.401520 
	C49.020523,117.067596 50.010502,117.466949 51.223984,118.088638 
	C52.540962,118.905861 53.634438,119.500740 54.862366,120.341431 
	C55.330826,120.722359 55.664837,120.857468 56.203129,121.227737 
	C57.205494,121.668930 58.003578,121.874954 58.975712,122.365982 
	C60.479584,123.420311 61.809406,124.189644 63.288757,125.186691 
	C63.947830,125.556023 64.457382,125.697647 65.127090,125.968132 
	C65.287247,126.097000 65.697922,126.116295 65.893585,126.363907 
	C66.657249,126.865440 67.225266,127.119354 67.777405,127.303360 
	C67.761536,127.233444 67.665794,127.340179 67.791779,127.618073 
	C68.612816,128.252396 69.307869,128.608810 70.263977,129.157928 
	C71.667603,129.937943 72.810165,130.525238 74.049255,131.323303 
	C74.384789,131.776810 74.670448,131.860611 75.229568,132.044861 
	C77.238586,133.190048 79.020775,134.075851 80.920853,135.210876 
	C81.367516,135.592560 81.696312,135.725006 82.039474,135.926025 
	C82.053848,135.994598 82.188599,135.956238 82.237358,136.129486 
	C82.286118,136.302719 82.559578,136.535645 82.559578,136.535645 
	C82.559578,136.535645 82.918541,136.521606 83.163589,136.701431 
	C83.607239,136.921570 83.805824,136.961884 84.088356,137.200409 
	C84.172310,137.398605 84.508095,137.666763 84.508095,137.666763 
	C84.508095,137.666763 84.935814,137.625488 85.262329,137.836700 
	C88.023201,137.736298 90.826912,138.099274 92.831093,137.001968 
	C104.553886,130.583679 116.126945,123.887749 127.675407,117.156631 
	C135.526947,112.580299 143.255539,107.793060 151.386993,103.030479 
	C153.804428,102.648865 155.873962,102.336914 157.874268,102.419884 
	C157.889038,103.876190 157.973038,104.937584 157.979019,106.249588 
	C157.953217,106.667221 158.005417,106.834236 157.964935,107.393692 
	C157.918884,108.855103 157.965500,109.924065 157.914871,111.243317 
	C157.868073,111.665329 157.918518,111.837074 157.868820,112.334534 
	C157.828979,113.106010 157.889282,113.551773 157.803253,114.340164 
	C157.847763,118.894508 155.733948,121.495438 151.568207,122.968002 
	C147.448776,125.308098 143.673111,127.582649 139.596954,129.877075 
	C138.854187,130.253784 138.411926,130.610596 137.630890,131.048553 
	C132.287262,134.106476 127.282410,137.083221 122.011642,140.135071 
	C121.497223,140.473816 121.248711,140.737488 120.643356,141.040649 
	C117.142853,142.924210 113.999176,144.768280 110.695244,146.561798 
	C110.295853,146.599640 110.168121,146.771149 109.893791,147.057831 
	C109.386757,147.315277 109.137703,147.540649 108.598938,147.810364 
	C107.863693,148.208771 107.418175,148.562836 106.625809,148.991547 
	C100.786148,152.339493 95.293343,155.612808 89.448822,158.876541 
	C88.396118,158.917847 87.695129,158.968750 86.771835,158.780396 
	C85.045151,157.663788 83.540756,156.786469 81.885056,155.657074 
	C81.200447,155.174026 80.667145,154.943054 79.902069,154.460541 
	C76.820358,153.026047 73.970444,151.843048 70.958664,150.375977 
	C69.409157,149.047775 68.021500,148.003662 66.629242,146.817429 
	C66.624641,146.675323 66.391136,146.515488 66.391136,146.515488 
	C66.391136,146.515488 66.140846,146.647614 65.828896,146.436859 
	C65.039520,146.076218 64.562096,145.926315 63.899055,145.499649 
	C60.736202,143.435959 57.796986,141.581772 54.774971,139.874115 
	C43.545734,133.528778 32.289261,127.231628 20.850311,120.638763 
	C14.854797,117.046768 9.051988,113.732407 2.135910,109.782173 
	C2.135910,114.782104 2.311668,118.546768 2.093919,122.288528 
	C1.782396,127.641678 4.475416,131.198212 8.741524,133.656784 
	C27.068165,144.218430 45.462631,154.662399 63.841118,165.137344 
	C63.849846,165.125427 63.856808,165.123917 64.028412,165.419464 
	C66.436424,166.885239 68.672836,168.055481 71.022507,169.438187 
	C71.383202,169.880203 71.675644,169.998169 72.095215,170.204102 
	C72.177345,170.403641 72.510918,170.677002 72.510918,170.677002 
	C72.510918,170.677002 72.942039,170.665436 73.241844,170.829010 
	C73.984016,171.092712 74.426384,171.192810 75.078445,171.547348 
	C78.125389,173.228821 80.962639,174.655884 84.016235,176.380142 
	C85.152260,176.759811 86.071938,176.842285 87.379364,176.949219 
	C90.566063,176.009613 93.365013,175.045547 96.531960,174.087494 
	C112.023170,165.550110 127.179390,157.064423 142.255600,148.438889 
	C149.716904,144.170074 157.030823,139.643692 164.711731,135.188477 
	C166.030945,134.509277 167.049850,133.875488 168.385269,133.082626 
	C172.925400,130.042404 174.368713,126.067001 174.264526,120.978043 
	C173.978531,107.009651 174.042465,93.034065 173.972961,79.061302 
	C173.960190,76.491425 173.971146,73.921432 173.971146,70.204857 
	C170.956284,72.141449 168.808319,73.521187 166.358673,74.953171 
	C165.010864,75.613396 163.964752,76.221375 162.573425,76.874184 
	C160.293777,78.213699 158.359329,79.508377 156.139923,80.800247 
	C155.228317,81.175194 154.601700,81.552963 153.626862,81.989395 
	C141.957245,88.607986 130.610901,95.125397 119.322777,101.742126 
	C111.179298,106.515572 103.113281,111.421188 94.677414,116.341751 
	C91.491951,118.459305 88.465996,119.515900 84.782745,117.899612 
	C84.072281,117.480247 83.575233,117.241341 82.920486,116.734665 
	C82.203964,116.216248 81.645149,115.965614 80.982498,115.511627 
	C80.647697,115.084213 80.371300,114.971794 79.891327,114.678864 
	C78.493774,113.912720 77.254395,113.438744 75.879524,112.733078 
	C75.427330,112.353188 75.110611,112.204971 74.660400,111.812706 
	C74.018097,111.381805 73.509285,111.194954 72.916344,110.896317 
	C72.832207,110.784546 72.554642,110.819847 72.360329,110.528625 
	C71.123947,109.805656 70.081871,109.373901 69.019104,108.969078 
	C68.998405,108.996010 69.055000,108.958778 68.945740,108.737099 
	C68.606895,108.228592 68.311325,108.117813 67.845734,107.973251 
	C67.539429,107.495964 67.270866,107.353477 66.756516,107.150253 
	C66.405708,106.947449 66.234383,106.930344 66.027832,106.939354 
	C65.992622,106.965462 66.066513,106.927284 65.863800,106.655952 
	C62.438892,104.657944 59.216686,102.931274 55.751717,101.000725 
	C54.940887,100.541077 54.372822,100.285301 53.763054,99.867142 
	C53.562714,99.473175 53.367451,99.436417 52.883827,99.339569 
	C52.011837,98.743416 51.391586,98.402161 50.584923,97.795486 
	C48.616760,96.645584 46.835007,95.761093 44.851830,94.604492 
	C38.432293,90.885643 32.214184,87.438927 25.922573,83.779190 
	C25.658983,83.276543 25.395580,83.172516 24.841354,83.105080 
	C24.448849,82.939468 24.273853,82.922882 24.081409,82.919296 
	C24.063963,82.932281 24.096718,82.934891 23.996914,82.729858 
	C23.663609,82.274971 23.383575,82.200775 22.844599,82.156509 
	C22.462915,81.981895 22.293646,81.952980 21.964211,81.663612 
	C21.220991,81.243774 20.637938,81.084389 20.028214,80.933670 
	C20.001543,80.942329 20.054388,80.960625 19.981789,80.699532 
	C19.615744,80.280441 19.322300,80.122444 19.040121,79.975113 
	C19.051388,79.985779 19.057526,79.954269 18.995647,79.709763 
	C18.876286,79.307106 18.818806,79.148964 18.944670,78.555908 
	C19.128796,72.827019 19.129576,67.533020 19.359133,61.987640 
	C21.361010,62.205387 23.134111,62.674519 24.932821,63.101173 
	C24.958429,63.058697 24.862339,63.083328 24.966969,63.283714 
	C25.071600,63.484100 25.476107,63.684093 25.476107,63.684093 
	C25.476107,63.684093 25.927145,63.671227 26.195648,63.908947 
	C33.864029,68.411819 41.548908,72.262619 48.563717,77.087608 
	C53.249889,80.310890 56.570183,79.514488 60.515633,76.037910 
	C79.629944,65.179321 98.390526,54.347382 117.514198,43.426327 
	C122.151917,39.330059 126.022934,42.817822 130.200302,44.272614 
	C132.596252,45.683670 134.810486,46.813156 137.160004,48.128448 
	C137.516129,48.546253 137.785553,48.681530 138.223907,49.003372 
	C138.502426,49.417400 138.660599,49.548126 138.705658,50.051743 
	C138.063416,50.991203 137.534271,51.557774 136.667786,52.139114 
	C134.136017,53.556217 131.941589,54.958557 129.387741,56.439560 
	C110.046593,67.478867 91.064873,78.439514 70.976418,90.039230 
	C77.292953,93.681282 82.506721,96.718811 87.770668,99.666748 
	C88.220955,99.918915 89.121765,99.772652 89.616516,99.479454 
	C99.423325,93.667664 109.201073,87.806831 119.335098,81.912323 
	C123.474869,79.633049 127.264267,77.397400 131.400543,75.088043 
	C133.469864,74.034195 135.232651,73.118042 136.907608,72.062531 
	C143.290405,68.040291 149.644897,63.973125 156.280457,59.923214 
	C156.768097,59.655663 156.985245,59.387634 157.151398,59.121429 
	C157.100433,59.123253 157.147812,59.213593 157.521545,59.172119 
	C162.847687,56.550446 167.800110,53.970238 172.752518,51.390034 
	C172.649948,50.803162 172.547363,50.216293 172.444794,49.629425 
	C170.992523,48.740879 169.540268,47.852333 167.987503,46.729744 
	C167.596832,46.342190 167.306656,46.188675 167.013763,46.010315 
	C167.011017,45.985474 166.961517,45.992504 166.825775,45.718266 
	C165.792084,44.998486 164.894165,44.552944 163.864990,43.987885 
	C163.733749,43.868366 163.378891,43.878689 163.214630,43.648937 
	C162.700500,43.301430 162.350632,43.183674 161.993835,43.032227 
	C161.986893,42.998531 161.921814,43.020885 161.766968,42.780712 
	C161.084351,42.356640 160.556610,42.172737 160.018768,41.989204 
	C160.008698,41.989578 159.999039,41.971935 159.825104,41.683533 
	C156.809387,39.875141 153.967606,38.355148 151.086716,36.872276 
	C151.047623,36.909405 151.155258,36.903008 151.061584,36.654396 
	C150.654419,36.270786 150.340942,36.135784 150.018768,35.991791 
	C150.010086,35.982796 149.985519,35.978222 149.783173,35.723148 
	C148.751572,35.214020 147.922348,34.959969 146.932709,34.443855 
	C145.894150,33.689461 145.016006,33.197128 143.959412,32.453117 
	C142.852829,31.827709 141.924683,31.453979 140.777740,30.892315 
	C140.047089,30.456623 139.535233,30.208866 138.926605,29.751854 
	C138.612045,29.294325 138.338104,29.174850 137.992950,29.095894 
	C137.977921,29.007614 137.801819,29.040308 137.623734,28.761129 
	C134.850723,27.163677 132.255798,25.845406 129.591995,24.483521 
	C129.523117,24.439909 129.383972,24.354866 129.235687,24.065308 
	C125.904892,22.909794 123.038307,18.810715 119.279648,22.770164 
	C119.180595,22.713295 118.997398,22.849766 118.634346,22.878553 
	C113.459076,25.783245 108.646858,28.659149 103.474960,31.596718 
	C93.744011,37.133030 84.372749,42.607677 74.687454,48.089489 
	C73.585144,48.730560 72.796860,49.364464 71.713074,50.071087 
	C70.930923,50.505569 70.444283,50.867329 69.625351,51.228325 
	C67.719360,52.285881 66.145668,53.344200 64.533157,54.441292 
	C64.494331,54.480068 64.384644,54.477062 64.058365,54.545036 
	C61.574139,55.765797 59.524479,57.296040 57.225063,57.955688 
	C55.275166,58.515064 52.820648,58.639164 50.974041,57.940018 
	C47.810268,56.742180 44.946815,54.751118 41.779541,52.812134 
	C40.309589,51.685997 39.017365,50.840847 37.975159,49.774246 
	C39.311550,48.788090 40.397926,48.023388 41.824539,47.215984 
	C46.453323,44.485420 50.741871,41.797562 55.387314,39.064083 
	C67.864487,32.083382 79.984764,25.148306 92.448410,18.132122 
	C96.725342,15.675542 100.658913,13.300066 105.083549,10.628038 
	C103.473846,9.362084 102.434937,8.313437 101.198883,7.612408 
	C95.368912,4.305950 89.721764,-0.281205 82.438026,3.891580 
	C75.577591,7.821856 68.779434,11.860830 61.643097,15.881559 
	C60.550304,16.555801 59.768299,17.200466 58.671928,17.903502 
	C58.041325,18.234442 57.725094,18.507011 57.155437,18.765142 
	C56.607456,18.908176 56.312897,19.065647 55.683151,19.275761 
	C51.828094,21.523554 48.308228,23.718704 44.480003,25.955780 
	C43.113613,26.640820 42.055592,27.283930 40.647285,27.943666 
	C38.188831,29.297937 36.080658,30.635582 33.986320,31.986576 
	C34.000153,31.999924 33.975830,31.969934 33.659012,31.997738 
	C32.518349,32.645256 31.694506,33.264969 30.908083,33.923698 
	C30.945503,33.962715 30.929480,33.855789 30.647320,33.923225 
	C30.133492,34.291763 29.901821,34.592861 29.478401,34.898766 
	C29.286652,34.903568 28.979115,35.132881 28.678585,35.110271 
	C27.865070,35.369682 27.352087,35.651703 26.513546,36.031300 
	C23.739403,37.730469 21.290819,39.332058 18.522743,41.079277 
	C16.288643,42.428154 14.520794,44.152798 12.432917,44.740490 
	C5.091434,46.806969 1.913885,51.635452 1.758865,58.997650 
	C1.337272,58.998428 1.168636,58.999214 1.000000,59.000000 
z"/>
<path fill="#F9EFEF" opacity="1.000000" stroke="none" 
	d="
M1.000000,59.468658 
	C1.168636,58.999214 1.337272,58.998428 1.851635,59.458862 
	C2.277968,66.279945 2.358574,72.639801 2.340762,79.437523 
	C2.251289,82.273537 2.260232,84.671684 2.173329,87.422745 
	C2.073625,88.507187 2.069766,89.238724 2.065908,89.970253 
	C1.888332,89.977928 1.710757,89.985611 1.266591,89.996651 
	C1.000000,79.979103 1.000000,69.958214 1.000000,59.468658 
z"/>
<path fill="#E44D43" opacity="1.000000" stroke="none" 
	d="
M75.001480,48.082321 
	C84.372749,42.607677 93.744011,37.133030 103.621384,31.952232 
	C105.992821,35.182568 108.462029,33.897858 109.865028,32.320343 
	C112.731491,29.097324 116.148643,28.650862 120.270935,29.283030 
	C123.654243,30.541481 127.161514,29.311069 129.818802,32.945827 
	C132.712540,36.903996 136.923294,39.899319 140.826111,43.564423 
	C139.940414,44.327255 138.969025,45.163891 137.686722,45.835938 
	C135.681427,41.792248 133.301010,40.916962 130.018600,43.991047 
	C126.022934,42.817822 122.151917,39.330059 117.475388,42.961739 
	C116.740868,40.317440 118.033844,36.993633 114.268608,36.721523 
	C111.329453,36.509109 107.088585,36.037331 105.601097,37.666542 
	C102.088371,41.513981 95.780251,41.284653 93.585785,46.570286 
	C93.502396,46.771141 92.982346,46.781044 92.673164,46.899269 
	C88.126915,48.637585 83.581924,50.379192 79.036636,52.120022 
	C79.095024,52.831146 79.153419,53.542274 79.211807,54.253399 
	C82.022644,54.515175 84.833488,54.776955 89.247231,55.188011 
	C80.042007,58.573318 72.134529,61.481369 64.131897,64.424408 
	C64.779709,66.074852 65.228828,67.219109 65.375214,67.592049 
	C61.790958,68.980202 58.526241,70.244606 54.161263,71.935135 
	C56.794899,73.747498 58.478401,74.906029 60.161907,76.064552 
	C56.570183,79.514488 53.249889,80.310890 48.563717,77.087608 
	C41.548908,72.262619 33.864029,68.411819 26.058628,63.748760 
	C25.420782,63.169342 25.157194,63.080166 24.862339,63.083328 
	C24.862339,63.083328 24.958429,63.058697 24.930580,62.737495 
	C24.414717,61.096107 23.926702,59.775917 23.450863,58.488667 
	C22.214315,58.808601 21.286766,59.048592 19.997498,59.382168 
	C19.997498,57.245674 19.997498,55.624012 19.998749,54.001175 
	C20.000000,54.000000 20.002504,53.997475 20.352535,53.933685 
	C22.065582,52.127419 23.628532,50.499245 24.715084,48.598713 
	C25.346067,47.495037 25.211943,45.953938 25.422110,44.609676 
	C24.203041,44.683521 22.907719,44.526688 21.786734,44.897247 
	C20.704445,45.255005 19.801949,46.156666 18.842234,46.804699 
	C18.842234,44.530510 18.842234,42.732079 18.842236,40.933647 
	C21.290819,39.332058 23.739403,37.730469 26.818659,36.044884 
	C27.959259,35.684887 28.469187,35.408886 28.979115,35.132881 
	C28.979115,35.132881 29.286652,34.903568 29.764387,34.833214 
	C30.471241,34.460499 30.700361,34.158146 30.929480,33.855789 
	C30.929480,33.855789 30.945503,33.962715 31.273695,33.958210 
	C32.393200,33.292446 33.184517,32.631191 33.975830,31.969934 
	C33.975830,31.969934 34.000153,31.999924 34.344879,32.006577 
	C36.126301,32.675220 37.563000,33.337208 38.855324,34.330437 
	C37.811474,36.734570 36.911995,38.807465 35.545406,41.956852 
	C37.521675,41.583458 39.415318,41.612328 39.550755,41.138573 
	C40.581264,37.533760 43.346519,37.968872 45.999611,38.383236 
	C43.997536,40.844112 41.996910,42.922817 39.599945,45.003052 
	C38.167503,45.523056 36.302345,45.997314 36.271828,46.569431 
	C36.212460,47.682518 37.181866,48.850471 37.725140,49.995697 
	C39.017365,50.840847 40.309589,51.685997 41.636883,53.121895 
	C38.032482,58.877159 38.145775,59.464523 43.826385,62.388500 
	C49.812923,65.469933 55.727058,63.314484 61.446339,61.598751 
	C64.604584,60.651306 66.064713,57.952011 64.384644,54.477062 
	C64.384644,54.477062 64.494331,54.480068 64.915573,54.628868 
	C68.659172,55.915363 68.971497,53.133511 69.957642,51.229088 
	C70.444283,50.867329 70.930923,50.505569 72.060486,50.071625 
	C73.469437,49.360405 74.235458,48.721363 75.001480,48.082321 
M28.519266,39.802444 
	C28.610605,40.514606 28.701944,41.226772 28.793283,41.938934 
	C29.788767,41.432522 30.784250,40.926105 31.779734,40.419693 
	C30.902367,40.101078 30.024998,39.782463 28.519266,39.802444 
z"/>
<path fill="#E44E43" opacity="1.000000" stroke="none" 
	d="
M156.009949,59.922733 
	C149.644897,63.973125 143.290405,68.040291 136.907608,72.062531 
	C135.232651,73.118042 133.469864,74.034195 131.377563,74.698135 
	C128.998459,72.851677 126.989204,71.321411 124.963974,69.778984 
	C121.370338,75.409805 121.370338,75.409805 113.096848,74.324036 
	C115.484253,77.418617 117.234489,79.687286 118.984726,81.955963 
	C109.201073,87.806831 99.423325,93.667664 89.616516,99.479454 
	C89.121765,99.772652 88.220955,99.918915 87.770668,99.666748 
	C82.506721,96.718811 77.292953,93.681282 70.976418,90.039230 
	C91.064873,78.439514 110.046593,67.478867 129.578888,56.800034 
	C133.348816,59.455143 135.172241,57.223595 137.358276,54.962418 
	C140.386185,52.391563 143.053802,49.858009 145.721420,47.324455 
	C145.422470,47.077431 145.123505,46.830406 144.824554,46.583385 
	C147.873001,46.869488 150.921432,47.155590 154.527832,47.494061 
	C154.589828,47.823071 154.794907,48.911533 154.648651,50.005630 
	C153.679886,50.531837 153.062454,51.052414 152.445023,51.572990 
	C153.574295,52.753868 154.703552,53.934750 155.832809,55.115631 
	C156.194656,54.786449 156.556519,54.457264 156.918365,54.128078 
	C156.278900,52.752052 155.639450,51.376026 155.368347,50.004642 
	C157.101669,50.681328 158.466614,51.353371 159.537354,51.880554 
	C158.612717,54.718094 157.880264,56.965843 157.147812,59.213593 
	C157.147812,59.213593 157.100433,59.123253 156.901855,59.169094 
	C156.472153,59.450867 156.241043,59.686798 156.009949,59.922733 
z"/>
<path fill="#E34C3E" opacity="1.000000" stroke="none" 
	d="
M86.994141,159.019653 
	C87.695129,158.968750 88.396118,158.917847 89.768005,159.097412 
	C92.187271,160.218552 93.857979,161.587097 95.702362,161.886826 
	C98.402283,162.325562 101.226669,161.998352 104.318573,161.956421 
	C105.092651,161.276840 105.546173,160.638428 106.146790,159.698883 
	C107.862595,157.931854 109.431297,156.465927 111.245834,155.274261 
	C116.360794,156.011765 122.496933,152.150238 122.582214,149.045807 
	C127.307091,144.806473 135.144608,148.425461 139.466217,141.191208 
	C136.723236,141.534073 134.861923,141.766739 133.001419,141.625519 
	C134.334656,139.167572 135.667099,137.083481 137.403915,135.000504 
	C140.753738,135.686554 144.864883,134.562439 144.776794,139.705704 
	C156.009857,135.556946 156.009857,135.556946 154.287933,127.117767 
	C156.978577,127.425980 159.486847,127.713295 162.045654,128.332352 
	C162.867920,130.854004 163.639664,133.043930 164.411407,135.233856 
	C157.030823,139.643692 149.716904,144.170074 142.255600,148.438889 
	C127.179390,157.064423 112.023170,165.550110 96.187119,173.918030 
	C90.411842,170.687408 87.438293,171.395081 85.632011,176.002350 
	C84.776779,176.032318 84.288338,176.057617 83.799896,176.082916 
	C80.962639,174.655884 78.125389,173.228821 75.197372,171.249588 
	C75.404907,170.131348 75.703194,169.565277 76.320328,168.974564 
	C77.425705,168.632858 78.212242,168.315811 79.390045,168.005951 
	C81.791245,168.661682 83.767120,169.500488 85.827141,169.869278 
	C86.704506,170.026367 87.757820,169.200607 88.731178,168.821487 
	C87.820992,168.214127 86.910805,167.606750 85.832527,166.754944 
	C85.109627,166.340317 84.554810,166.170166 83.583351,166.000000 
	C81.777901,166.000000 80.389107,166.000000 79.032646,165.654816 
	C79.376968,164.206833 79.688942,163.104019 80.338821,161.999176 
	C81.451462,161.664963 82.226189,161.332779 83.331520,160.971573 
	C84.772797,160.301575 85.883469,159.660614 86.994141,159.019653 
M96.304779,167.923172 
	C96.567123,167.410141 96.829468,166.897110 97.091797,166.384064 
	C96.345856,166.387802 95.599907,166.391556 94.853973,166.395294 
	C95.121468,166.905884 95.388962,167.416473 96.304779,167.923172 
z"/>
<path fill="#E44A3C" opacity="1.000000" stroke="none" 
	d="
M84.004402,137.002197 
	C83.805824,136.961884 83.607239,136.921570 83.067604,136.577469 
	C82.570839,136.127884 82.391518,136.022079 82.188599,135.956238 
	C82.188599,135.956238 82.053848,135.994598 81.888794,135.714142 
	C81.416817,135.276352 81.109894,135.119003 80.802971,134.961655 
	C79.020775,134.075851 77.238586,133.190048 75.212585,131.824722 
	C74.630096,131.267654 74.291412,131.190094 73.952736,131.112549 
	C72.810165,130.525238 71.667603,129.937943 70.207367,128.817566 
	C69.148407,127.969727 68.407097,127.654953 67.665794,127.340179 
	C67.665794,127.340179 67.761536,127.233444 67.684883,126.963585 
	C66.971458,126.501244 66.334694,126.308769 65.697922,126.116295 
	C65.697922,126.116295 65.287247,126.097000 64.965103,125.756348 
	C64.141724,125.263458 63.640476,125.111214 63.139229,124.958969 
	C61.809406,124.189644 60.479584,123.420311 59.365768,122.308640 
	C61.721287,121.311371 63.860794,120.656448 66.343628,120.035316 
	C68.124428,120.713249 69.561913,121.357384 71.049164,122.339188 
	C74.716309,125.913673 77.602158,130.543518 84.269073,129.641861 
	C83.747635,127.734398 83.374313,126.368767 83.316650,124.865120 
	C84.754944,123.817390 85.877586,122.907684 87.249832,121.999176 
	C87.499420,122.000366 87.998611,122.002197 88.088020,122.167984 
	C88.452545,122.223763 88.727661,122.113747 89.251617,122.003860 
	C89.500458,122.003983 89.998131,122.003174 90.149704,122.300407 
	C91.867508,123.732475 93.433739,124.867310 95.040375,126.358139 
	C96.387688,127.475639 97.694603,128.237137 99.283218,128.860504 
	C99.375992,127.814629 99.187073,126.906860 98.749619,125.999046 
	C98.501068,125.999008 98.003967,125.999390 97.963219,125.646866 
	C96.614601,123.863297 95.306732,122.432243 94.107933,120.782364 
	C94.416870,120.290779 94.677765,120.102631 95.400826,120.007568 
	C98.348526,120.922371 100.877541,121.883347 103.449837,122.709579 
	C104.564812,123.067711 105.768974,123.148209 106.932625,123.354813 
	C106.940544,122.221375 107.261345,120.974754 106.899658,119.975029 
	C105.650558,116.522438 106.888008,114.606613 110.316055,114.054626 
	C112.425629,113.714951 114.795723,114.241081 116.694702,113.486847 
	C122.345734,111.242371 127.493469,107.193520 135.017181,110.488449 
	C133.182343,107.351189 132.042313,105.401939 130.600082,102.935989 
	C134.155243,100.736984 137.275085,98.313797 140.778519,96.749924 
	C146.806824,94.059013 150.833923,96.737709 151.039108,103.100143 
	C143.255539,107.793060 135.526947,112.580299 127.675407,117.156631 
	C116.126945,123.887749 104.553886,130.583679 92.831093,137.001968 
	C90.826912,138.099274 88.023201,137.736298 85.143959,137.684509 
	C84.499557,137.145004 84.268005,137.038712 84.004402,137.002197 
M91.403206,134.894501 
	C90.979065,134.312515 90.554924,133.730530 90.130798,133.148560 
	C89.636841,133.660934 89.142883,134.173325 88.648911,134.685699 
	C89.422272,134.911606 90.195625,135.137512 91.403206,134.894501 
M136.200546,103.604485 
	C136.204773,103.212860 136.209000,102.821228 136.213226,102.429604 
	C136.050705,102.428047 135.746918,102.415581 135.746078,102.426514 
	C135.715973,102.816208 135.714218,103.208084 136.200546,103.604485 
z"/>
<path fill="#E44C42" opacity="1.000000" stroke="none" 
	d="
M63.832386,165.149261 
	C45.462631,154.662399 27.068165,144.218430 8.741524,133.656784 
	C4.475416,131.198212 1.782396,127.641678 2.093919,122.288528 
	C2.311668,118.546768 2.135910,114.782104 2.135910,109.782173 
	C9.051988,113.732407 14.854797,117.046768 20.789272,120.964157 
	C18.289639,121.385422 15.658340,121.203667 12.300831,120.971756 
	C13.024594,123.154030 13.172206,125.828102 14.175271,126.200981 
	C17.057489,127.272430 20.285713,127.413116 23.447866,127.931015 
	C23.539440,132.064056 28.548397,137.639359 33.331676,137.583176 
	C38.011486,137.528214 40.504902,139.901169 42.776531,143.367599 
	C43.501640,144.474091 44.907078,145.134735 46.063217,146.361969 
	C48.417160,147.482620 50.709110,148.240692 53.370201,149.003387 
	C55.159691,149.338882 56.580040,149.669739 57.852203,150.340729 
	C56.526421,156.485687 61.132523,153.056900 63.303463,154.127243 
	C65.070549,154.170898 66.535141,154.086060 68.002373,154.351501 
	C68.336777,155.800980 68.668541,156.900177 68.993179,158.387299 
	C68.018623,159.852081 67.008415,160.894211 66.096550,162.016251 
	C65.285233,163.014572 64.582848,164.101456 63.832386,165.149261 
z"/>
<path fill="#E54E44" opacity="1.000000" stroke="none" 
	d="
M151.386993,103.030472 
	C150.833923,96.737709 146.806824,94.059013 140.778519,96.749924 
	C137.275085,98.313797 134.155243,100.736984 130.600082,102.935989 
	C132.042313,105.401939 133.182343,107.351189 135.017181,110.488449 
	C127.493469,107.193520 122.345734,111.242371 116.694702,113.486847 
	C114.795723,114.241081 112.425629,113.714951 110.316055,114.054626 
	C106.888008,114.606613 105.650558,116.522438 106.899658,119.975029 
	C107.261345,120.974754 106.940544,122.221375 106.932625,123.354813 
	C105.768974,123.148209 104.564812,123.067711 103.449837,122.709579 
	C100.877541,121.883347 98.348526,120.922371 95.400635,119.633881 
	C95.003784,118.257103 95.008255,117.262489 95.012726,116.267868 
	C103.113281,111.421188 111.179298,106.515572 119.322777,101.742126 
	C130.610901,95.125397 141.957245,88.607986 153.810303,82.331635 
	C156.745087,83.354584 159.148254,84.093941 161.407974,84.789169 
	C161.407974,87.779213 160.568451,91.131454 161.594589,93.753578 
	C163.361984,98.269852 161.835709,100.448936 157.943512,102.024971 
	C155.873962,102.336914 153.804428,102.648865 151.386993,103.030472 
z"/>
<path fill="#E44A40" opacity="1.000000" stroke="none" 
	d="
M66.000305,120.001526 
	C63.860794,120.656448 61.721287,121.311371 59.191719,122.023636 
	C58.003578,121.874954 57.205494,121.668930 56.058197,120.995850 
	C55.381962,120.384399 55.054939,120.240005 54.727913,120.095619 
	C53.634438,119.500740 52.540962,118.905861 51.146839,117.734787 
	C49.779869,116.817329 48.713551,116.476067 47.647232,116.134796 
	C47.203182,115.867058 46.759136,115.599327 46.013081,114.914581 
	C45.401993,114.384377 45.092907,114.271187 44.783825,114.157997 
	C44.783825,114.157997 44.892933,114.165855 44.853859,113.805817 
	C43.431763,113.005310 42.048733,112.564842 40.665707,112.124374 
	C28.201958,104.981049 15.738209,97.837730 3.123767,90.074554 
	C2.738442,88.659744 2.503809,87.864792 2.269176,87.069839 
	C2.260232,84.671684 2.251289,82.273537 2.694402,79.297981 
	C3.617313,73.636658 4.088168,68.552734 4.628078,62.723202 
	C5.439776,63.854881 5.697689,64.256340 5.996635,64.624481 
	C7.942104,67.020256 9.896489,69.408783 11.847956,71.799690 
	C13.571928,70.271896 15.284838,68.731194 17.033648,67.232391 
	C17.256186,67.041664 17.666332,67.069847 17.993326,67.456924 
	C18.016991,71.597092 18.036892,75.276939 18.134098,79.199165 
	C18.493443,79.612450 18.775482,79.783363 19.057524,79.954269 
	C19.057526,79.954269 19.051388,79.985779 19.025494,80.233627 
	C18.997952,80.653526 18.996304,80.825569 18.717892,81.249306 
	C18.293501,83.002632 18.145874,84.504272 17.697796,86.159607 
	C15.928491,87.812576 14.955393,89.231125 18.298416,90.143677 
	C22.081831,92.712692 26.019075,94.688744 28.931921,97.666763 
	C32.678234,101.496925 39.577305,101.057137 41.385460,107.221855 
	C42.257023,106.814568 43.128590,106.407288 44.338051,105.998245 
	C45.451077,105.665131 46.226208,105.333778 47.363091,105.068008 
	C48.791077,107.255905 49.857315,109.378212 50.469429,110.596611 
	C53.667820,112.245232 56.277534,113.408546 58.694920,114.886467 
	C61.226280,116.434082 63.572926,118.283829 66.000305,120.001526 
z"/>
<path fill="#EA443C" opacity="1.000000" stroke="none" 
	d="
M157.874268,102.419884 
	C161.835709,100.448936 163.361984,98.269852 161.594589,93.753578 
	C160.568451,91.131454 161.407974,87.779213 161.407974,84.789169 
	C159.148254,84.093941 156.745087,83.354584 154.158508,82.272972 
	C154.601700,81.552963 155.228317,81.175194 156.515854,80.866379 
	C158.922729,81.164360 160.668686,81.393387 162.414658,81.622414 
	C162.582642,80.024727 162.750626,78.427032 162.918625,76.829346 
	C163.964752,76.221375 165.010864,75.613396 166.769623,74.978302 
	C168.899231,74.951180 170.316208,74.951180 171.674164,74.951180 
	C171.815338,75.510201 171.966354,75.824738 171.963531,76.137886 
	C171.860138,87.604698 171.884613,99.075439 171.558426,110.536156 
	C171.423355,115.281784 171.169571,120.207184 169.758667,124.667732 
	C168.846909,127.550224 166.629059,129.938751 168.068741,133.241684 
	C167.049850,133.875488 166.030945,134.509277 164.711731,135.188461 
	C163.639664,133.043930 162.867920,130.854004 162.047241,127.908951 
	C162.110077,124.316681 162.387390,121.351242 158.008881,121.619705 
	C159.199722,119.668755 160.384521,118.097580 162.162338,115.740013 
	C160.784241,115.170006 159.366928,114.583771 157.949585,113.997536 
	C157.889282,113.551773 157.828979,113.106010 158.043427,112.251251 
	C158.386658,111.734467 158.537537,111.567970 158.509644,111.528770 
	C158.369461,111.331917 158.182587,111.168320 158.012115,110.993034 
	C157.965500,109.924065 157.918884,108.855103 158.125656,107.303421 
	C158.271713,106.546799 158.164383,106.272888 158.057037,105.998978 
	C157.973038,104.937584 157.889038,103.876190 157.874268,102.419884 
z"/>
<path fill="#E44A3C" opacity="1.000000" stroke="none" 
	d="
M60.515633,76.037910 
	C58.478401,74.906029 56.794899,73.747498 54.161263,71.935135 
	C58.526241,70.244606 61.790958,68.980202 65.375214,67.592049 
	C65.228828,67.219109 64.779709,66.074852 64.131897,64.424408 
	C72.134529,61.481369 80.042007,58.573318 89.247231,55.188011 
	C84.833488,54.776955 82.022644,54.515175 79.211807,54.253399 
	C79.153419,53.542274 79.095024,52.831146 79.036636,52.120022 
	C83.581924,50.379192 88.126915,48.637585 92.673164,46.899269 
	C92.982346,46.781044 93.502396,46.771141 93.585785,46.570286 
	C95.780251,41.284653 102.088371,41.513981 105.601097,37.666542 
	C107.088585,36.037331 111.329453,36.509109 114.268608,36.721523 
	C118.033844,36.993633 116.740868,40.317440 117.112305,43.050850 
	C98.390526,54.347382 79.629944,65.179321 60.515633,76.037910 
z"/>
<path fill="#E34B3F" opacity="1.000000" stroke="none" 
	d="
M46.001068,38.001068 
	C43.346519,37.968872 40.581264,37.533760 39.550755,41.138573 
	C39.415318,41.612328 37.521675,41.583458 35.545406,41.956852 
	C36.911995,38.807465 37.811474,36.734570 39.188576,34.329483 
	C40.110523,33.995647 40.554848,33.994003 41.212803,34.276711 
	C42.664211,35.071735 43.901989,35.582401 45.118843,36.084438 
	C46.217236,33.003632 47.108994,30.502409 48.249985,28.000656 
	C48.499222,28.000126 48.997711,27.998369 49.400867,27.948502 
	C52.308807,27.422567 54.813587,26.946499 57.590157,26.418776 
	C58.046387,24.009813 58.520878,21.504417 58.996346,18.710524 
	C58.993649,18.229729 58.989971,18.037430 58.986294,17.845131 
	C59.768299,17.200466 60.550304,16.555801 61.691280,16.217739 
	C62.749027,17.143324 63.547325,18.377424 64.130692,18.283043 
	C68.429634,17.587524 73.066711,17.412874 76.868240,15.570136 
	C82.965790,12.614439 87.540131,14.409402 92.105042,18.213226 
	C79.984764,25.148306 67.864487,32.083382 55.344017,38.743740 
	C51.962902,38.313034 48.981987,38.157051 46.001068,38.001068 
z"/>
<path fill="#E84F44" opacity="1.000000" stroke="none" 
	d="
M155.368347,50.004642 
	C154.794907,48.911533 154.589828,47.823071 154.527832,47.494061 
	C150.921432,47.155590 147.873001,46.869488 144.824554,46.583385 
	C145.123505,46.830406 145.422470,47.077431 145.721420,47.324455 
	C143.053802,49.858009 140.386185,52.391563 137.358841,54.602898 
	C137.001114,53.561901 137.003113,52.843124 137.005127,52.124344 
	C137.534271,51.557774 138.063416,50.991203 138.754578,49.892647 
	C138.645584,49.147129 138.374573,48.933601 138.103546,48.720078 
	C137.785553,48.681530 137.516129,48.546253 137.265991,47.877686 
	C137.490372,46.960922 137.744003,46.480724 137.997635,46.000526 
	C138.969025,45.163891 139.940414,44.327255 140.826111,43.564423 
	C136.923294,39.899319 132.712540,36.903996 129.818802,32.945827 
	C127.161514,29.311069 123.654243,30.541481 120.226318,28.897207 
	C119.604607,26.433775 119.301003,24.641769 118.997398,22.849766 
	C118.997398,22.849766 119.180595,22.713295 119.730034,22.815138 
	C123.314308,23.396275 126.349136,23.875570 129.383972,24.354866 
	C129.383972,24.354866 129.523117,24.439909 129.390015,24.880070 
	C129.879410,26.479628 130.296783,28.414587 131.165176,28.644258 
	C133.265396,29.199722 135.576019,28.959675 137.801819,29.040306 
	C137.801819,29.040308 137.977921,29.007614 138.113800,29.280928 
	C138.461365,29.777758 138.719254,29.913382 139.023392,29.961113 
	C139.535233,30.208866 140.047089,30.456623 140.816208,31.222637 
	C142.094940,32.062195 143.116394,32.383495 144.137848,32.704796 
	C145.016006,33.197128 145.894150,33.689461 147.071960,34.760838 
	C148.242920,35.552662 149.114212,35.765442 149.985519,35.978222 
	C149.985519,35.978222 150.010086,35.982796 150.136719,36.217529 
	C150.560654,36.602516 150.857956,36.752762 151.155258,36.903008 
	C151.155258,36.903008 151.047623,36.909405 151.098572,37.240833 
	C152.108704,39.709442 153.067871,41.846619 154.244934,44.469288 
	C155.392242,43.971344 157.695648,42.971642 159.999039,41.971939 
	C159.999039,41.971935 160.008698,41.989578 160.168182,42.234406 
	C160.859055,42.659779 161.390427,42.840332 161.921814,43.020885 
	C161.921814,43.020885 161.986893,42.998531 162.159836,43.258675 
	C162.681488,43.638771 163.030182,43.758728 163.378891,43.878689 
	C163.378891,43.878689 163.733749,43.868366 163.925201,44.320145 
	C165.064941,45.178783 166.013229,45.585648 166.961517,45.992508 
	C166.961517,45.992504 167.011017,45.985474 167.129684,46.228458 
	C167.468063,46.738163 167.747940,46.902279 168.088013,46.963791 
	C169.540268,47.852333 170.992523,48.740879 172.444794,49.629425 
	C172.547363,50.216293 172.649948,50.803162 172.752518,51.390034 
	C167.800110,53.970238 162.847687,56.550446 157.521545,59.172119 
	C157.880264,56.965843 158.612717,54.718094 159.537354,51.880554 
	C158.466614,51.353371 157.101669,50.681328 155.368347,50.004642 
M125.483330,26.585596 
	C125.483330,26.585596 125.419342,26.477356 125.483330,26.585596 
z"/>
<path fill="#E84D46" opacity="1.000000" stroke="none" 
	d="
M17.989563,66.996613 
	C17.666332,67.069847 17.256186,67.041664 17.033648,67.232391 
	C15.284838,68.731194 13.571928,70.271896 11.847956,71.799690 
	C9.896489,69.408783 7.942104,67.020256 5.996635,64.624481 
	C5.697689,64.256340 5.439776,63.854881 4.628078,62.723202 
	C4.088168,68.552734 3.617313,73.636658 2.792819,78.860123 
	C2.358574,72.639801 2.277968,66.279945 2.104592,59.458870 
	C1.913885,51.635452 5.091434,46.806969 12.432917,44.740490 
	C14.520794,44.152798 16.288643,42.428154 18.522743,41.079273 
	C18.842234,42.732079 18.842234,44.530510 18.842234,46.804699 
	C19.801949,46.156666 20.704445,45.255005 21.786734,44.897247 
	C22.907719,44.526688 24.203041,44.683521 25.422110,44.609676 
	C25.211943,45.953938 25.346067,47.495037 24.715084,48.598713 
	C23.628532,50.499245 22.065582,52.127419 20.346272,53.591805 
	C19.665237,52.704140 19.340498,52.094570 19.015759,51.485001 
	C18.734804,51.781021 18.453852,52.077042 18.172897,52.373062 
	C18.781097,52.916157 19.389297,53.459255 19.997498,54.002350 
	C19.997498,55.624012 19.997498,57.245674 19.997498,59.382168 
	C21.286766,59.048592 22.214315,58.808601 23.450863,58.488667 
	C23.926702,59.775917 24.414717,61.096107 24.904972,62.779972 
	C23.134111,62.674519 21.361010,62.205387 19.293694,61.687008 
	C18.800051,61.447498 18.609198,61.246010 18.391497,61.079651 
	C18.360559,61.056011 18.112772,61.200661 18.110842,61.271385 
	C18.058807,63.179478 18.025787,65.088089 17.989563,66.996613 
z"/>
<path fill="#E75248" opacity="1.000000" stroke="none" 
	d="
M58.000389,150.000610 
	C56.580040,149.669739 55.159691,149.338882 53.307579,148.641022 
	C50.584282,147.515823 48.292751,146.757599 46.001221,145.999390 
	C44.907078,145.134735 43.501640,144.474091 42.776531,143.367599 
	C40.504902,139.901169 38.011486,137.528214 33.331676,137.583176 
	C28.548397,137.639359 23.539440,132.064056 23.447866,127.931015 
	C20.285713,127.413116 17.057489,127.272430 14.175271,126.200981 
	C13.172206,125.828102 13.024594,123.154030 12.300831,120.971756 
	C15.658340,121.203667 18.289639,121.385422 20.981976,121.241776 
	C32.289261,127.231628 43.545734,133.528778 54.774971,139.874115 
	C57.796986,141.581772 60.736202,143.435959 63.874290,145.921539 
	C63.893616,147.971497 63.752079,149.322784 63.591816,150.852905 
	C61.397785,150.518478 59.699085,150.259537 58.000389,150.000610 
z"/>
<path fill="#E44D47" opacity="1.000000" stroke="none" 
	d="
M92.448410,18.132122 
	C87.540131,14.409402 82.965790,12.614439 76.868240,15.570136 
	C73.066711,17.412874 68.429634,17.587524 64.130692,18.283043 
	C63.547325,18.377424 62.749027,17.143324 62.002068,16.188164 
	C68.779434,11.860830 75.577591,7.821856 82.438026,3.891580 
	C89.721764,-0.281205 95.368912,4.305950 101.198883,7.612408 
	C102.434937,8.313437 103.473846,9.362084 105.083549,10.628038 
	C100.658913,13.300066 96.725342,15.675542 92.448410,18.132122 
z"/>
<path fill="#E44C42" opacity="1.000000" stroke="none" 
	d="
M103.998016,161.997559 
	C101.226669,161.998352 98.402283,162.325562 95.702362,161.886826 
	C93.857979,161.587097 92.187271,160.218552 90.119720,159.106995 
	C95.293343,155.612808 100.786148,152.339493 106.638519,149.341125 
	C107.503532,150.256638 108.008980,150.897217 108.514427,151.537796 
	C108.639168,150.280548 108.763908,149.023285 108.888649,147.766037 
	C109.137703,147.540649 109.386757,147.315277 110.022888,147.009491 
	C110.578354,146.851486 110.726875,146.745895 110.855507,146.612350 
	C113.999176,144.768280 117.142853,142.924210 120.696999,141.379028 
	C122.243591,141.667969 123.379707,141.658005 124.515823,141.648041 
	C123.769737,141.118683 123.023651,140.589325 122.277565,140.059982 
	C127.282410,137.083221 132.287262,134.106476 137.668549,131.085907 
	C138.044983,131.042114 138.121170,131.115952 138.078552,131.453583 
	C137.690460,132.860611 137.345001,133.929993 136.999527,134.999390 
	C135.667099,137.083481 134.334656,139.167572 132.642975,141.664459 
	C128.456726,143.399109 124.624825,144.707047 120.806915,146.054657 
	C120.051842,146.321182 119.192299,146.580444 118.651451,147.116150 
	C116.050117,149.692764 113.541519,152.363007 111.000000,155.000000 
	C109.431297,156.465927 107.862595,157.931854 105.826660,159.740997 
	C104.905624,160.721985 104.451813,161.359772 103.998016,161.997559 
M102.679100,154.384033 
	C102.311722,155.396454 101.944351,156.408875 101.576973,157.421295 
	C102.015594,157.522598 102.454224,157.623886 102.892845,157.725174 
	C103.051048,156.653793 103.209244,155.582397 102.679100,154.384033 
z"/>
<path fill="#E54E44" opacity="1.000000" stroke="none" 
	d="
M66.343628,120.035316 
	C63.572926,118.283829 61.226280,116.434082 58.694920,114.886467 
	C56.277534,113.408546 53.667820,112.245232 50.469429,110.596611 
	C49.857315,109.378212 48.791077,107.255905 47.362656,104.817390 
	C47.000401,104.334129 47.000332,104.167061 47.266701,103.775955 
	C47.354809,101.701027 47.176472,99.850151 47.376183,97.999695 
	C48.759930,98.020386 49.765633,98.040649 50.771336,98.060913 
	C51.391586,98.402161 52.011837,98.743416 52.978371,99.433334 
	C53.469318,99.894287 53.629353,99.976799 53.804756,100.029526 
	C54.372822,100.285301 54.940887,100.541077 55.785725,101.292969 
	C56.709087,102.859695 57.355679,103.930298 57.655495,105.062943 
	C57.039864,106.221863 56.176319,107.845406 56.602554,108.326691 
	C58.726974,110.725502 61.190437,112.824066 63.620815,115.109375 
	C65.197876,112.889717 66.588837,110.931976 68.248764,108.981285 
	C68.696808,108.978485 68.875900,108.968636 69.055000,108.958778 
	C69.055000,108.958778 68.998405,108.996010 69.006035,109.311600 
	C69.009521,110.084084 69.005371,110.540970 69.005554,111.368347 
	C69.408546,116.964073 73.039963,115.261314 76.403717,115.000244 
	C77.888931,114.990677 78.969215,114.980850 80.049492,114.971031 
	C80.371300,114.971794 80.647697,115.084213 81.099045,115.815376 
	C81.905670,116.549133 82.491928,116.775787 83.078186,117.002441 
	C83.575233,117.241341 84.072281,117.480247 84.787064,118.237206 
	C85.669945,119.836174 86.335091,120.917076 87.000237,121.997986 
	C85.877586,122.907684 84.754944,123.817390 82.918411,124.863388 
	C78.469490,124.000298 74.734436,123.000908 70.999390,122.001526 
	C69.561913,121.357384 68.124428,120.713249 66.343628,120.035316 
M52.856117,103.509453 
	C52.430309,103.207520 52.004505,102.905579 51.578701,102.603645 
	C51.465244,103.050461 51.351788,103.497276 51.238331,103.944092 
	C51.736637,103.997559 52.234943,104.051018 52.856117,103.509453 
z"/>
<path fill="#E8524A" opacity="1.000000" stroke="none" 
	d="
M46.998138,97.999268 
	C47.176472,99.850151 47.354809,101.701027 46.972343,103.634033 
	C45.274559,103.143600 44.137585,102.571037 42.841167,101.682129 
	C40.788124,100.576698 38.894520,99.787621 36.832726,98.754143 
	C36.109604,98.339928 35.554668,98.170120 34.647346,97.964417 
	C31.202980,97.091255 28.918240,95.843811 32.150669,91.830048 
	C29.834482,91.228149 28.055882,90.215363 26.480946,90.468704 
	C22.957092,91.035530 22.894897,89.155380 23.233248,86.745918 
	C23.415079,85.451057 23.803600,84.185234 24.098858,82.906303 
	C24.273853,82.922882 24.448849,82.939468 24.958817,83.272064 
	C25.491604,83.785820 25.725698,83.920532 25.996077,83.992203 
	C32.214184,87.438927 38.432293,90.885643 44.858238,94.935959 
	C45.710094,96.359459 46.354118,97.179367 46.998138,97.999268 
z"/>
<path fill="#D6423E" opacity="1.000000" stroke="none" 
	d="
M168.385269,133.082626 
	C166.629059,129.938751 168.846909,127.550224 169.758667,124.667732 
	C171.169571,120.207184 171.423355,115.281784 171.558426,110.536156 
	C171.884613,99.075439 171.860138,87.604698 171.963531,76.137886 
	C171.966354,75.824738 171.815338,75.510201 171.674164,74.951180 
	C170.316208,74.951180 168.899231,74.951180 167.071304,74.926056 
	C168.808319,73.521187 170.956284,72.141449 173.971146,70.204857 
	C173.971146,73.921432 173.960190,76.491425 173.972961,79.061302 
	C174.042465,93.034065 173.978531,107.009651 174.264526,120.978043 
	C174.368713,126.067001 172.925400,130.042404 168.385269,133.082626 
z"/>
<path fill="#E7544A" opacity="1.000000" stroke="none" 
	d="
M64.058365,54.545036 
	C66.064713,57.952011 64.604584,60.651306 61.446339,61.598751 
	C55.727058,63.314484 49.812923,65.469933 43.826385,62.388500 
	C38.145775,59.464523 38.032482,58.877159 41.814606,53.402882 
	C44.946815,54.751118 47.810268,56.742180 50.974041,57.940018 
	C52.820648,58.639164 55.275166,58.515064 57.225063,57.955688 
	C59.524479,57.296040 61.574139,55.765797 64.058365,54.545036 
z"/>
<path fill="#E54E44" opacity="1.000000" stroke="none" 
	d="
M24.081409,82.919296 
	C23.803600,84.185234 23.415079,85.451057 23.233248,86.745918 
	C22.894897,89.155380 22.957092,91.035530 26.480946,90.468704 
	C28.055882,90.215363 29.834482,91.228149 32.150669,91.830048 
	C28.918240,95.843811 31.202980,97.091255 34.678471,98.256592 
	C35.708298,98.722618 36.354607,98.860580 37.000916,98.998550 
	C38.894520,99.787621 40.788124,100.576698 42.873329,102.027565 
	C43.376675,103.792900 43.688416,104.896454 44.000153,106.000000 
	C43.128590,106.407288 42.257023,106.814568 41.385460,107.221855 
	C39.577305,101.057137 32.678234,101.496925 28.931921,97.666763 
	C26.019075,94.688744 22.081831,92.712692 18.298977,89.744675 
	C17.998129,88.134003 17.998188,87.069954 17.998245,86.005913 
	C18.145874,84.504272 18.293501,83.002632 18.983227,81.248398 
	C19.701679,80.984070 19.878033,80.972351 20.054388,80.960625 
	C20.054388,80.960625 20.001543,80.942329 20.029106,81.210403 
	C20.745905,81.627007 21.435139,81.775528 22.124374,81.924057 
	C22.293646,81.952980 22.462915,81.981895 22.974003,82.323975 
	C23.540442,82.829903 23.800741,82.929153 24.096718,82.934891 
	C24.096718,82.934891 24.063963,82.932281 24.081409,82.919296 
z"/>
<path fill="#E64D3B" opacity="1.000000" stroke="none" 
	d="
M119.335098,81.912331 
	C117.234489,79.687286 115.484253,77.418617 113.096848,74.324036 
	C121.370338,75.409805 121.370338,75.409805 124.963974,69.778984 
	C126.989204,71.321411 128.998459,72.851677 131.030685,74.771843 
	C127.264267,77.397400 123.474869,79.633049 119.335098,81.912331 
z"/>
<path fill="#E44E43" opacity="1.000000" stroke="none" 
	d="
M57.852200,150.340744 
	C59.699085,150.259537 61.397785,150.518478 63.591816,150.852905 
	C63.752079,149.322784 63.893616,147.971497 64.059914,146.198303 
	C64.562096,145.926315 65.039520,146.076218 65.899857,146.503510 
	C66.282761,146.780930 66.633850,146.959534 66.633850,146.959534 
	C68.021500,148.003662 69.409157,149.047775 70.928757,150.757019 
	C71.373711,153.614975 71.686707,155.807785 71.624771,158.000427 
	C70.499992,157.999954 69.750153,157.999680 69.000305,157.999390 
	C68.668541,156.900177 68.336777,155.800980 68.150253,154.128113 
	C66.404434,152.198563 64.467957,150.301147 63.000965,153.998749 
	C61.132523,153.056900 56.526421,156.485687 57.852200,150.340744 
z"/>
<path fill="#E44A3F" opacity="1.000000" stroke="none" 
	d="
M68.993179,158.387299 
	C69.750153,157.999680 70.499992,157.999954 71.630096,158.353973 
	C72.673470,159.471817 73.336586,160.235901 74.108582,161.218689 
	C74.417091,161.710190 74.677940,161.897919 75.030769,162.334442 
	C75.374855,164.778595 75.688171,166.888916 76.001480,168.999222 
	C75.703194,169.565277 75.404907,170.131348 74.987686,170.995163 
	C74.426384,171.192810 73.984016,171.092712 73.123749,170.672867 
	C72.508492,170.170258 72.277573,170.054062 72.013092,170.004547 
	C71.675644,169.998169 71.383202,169.880203 71.044586,169.060593 
	C70.912994,162.424515 66.479340,165.694489 63.856808,165.123917 
	C63.856808,165.123917 63.849846,165.125427 63.841118,165.137329 
	C64.582848,164.101456 65.285233,163.014572 66.096550,162.016251 
	C67.008415,160.894211 68.018623,159.852081 68.993179,158.387299 
z"/>
<path fill="#E75049" opacity="1.000000" stroke="none" 
	d="
M118.634346,22.878553 
	C119.301003,24.641769 119.604607,26.433775 119.952827,28.611603 
	C116.148643,28.650862 112.731491,29.097324 109.865028,32.320343 
	C108.462029,33.897858 105.992821,35.182568 103.981064,31.890568 
	C108.646858,28.659149 113.459076,25.783245 118.634346,22.878553 
z"/>
<path fill="#E74E3F" opacity="1.000000" stroke="none" 
	d="
M45.999611,38.383236 
	C48.981987,38.157051 51.962902,38.313034 54.987122,38.789360 
	C50.741871,41.797562 46.453323,44.485420 41.508369,47.036957 
	C40.566734,46.267593 40.281509,45.634560 39.996288,45.001526 
	C41.996910,42.922817 43.997536,40.844112 45.999611,38.383236 
z"/>
<path fill="#E64E44" opacity="1.000000" stroke="none" 
	d="
M67.979805,108.974243 
	C66.588837,110.931976 65.197876,112.889717 63.620815,115.109375 
	C61.190437,112.824066 58.726974,110.725502 56.602554,108.326691 
	C56.176319,107.845406 57.039864,106.221863 57.698486,105.427132 
	C60.111305,110.366562 63.510647,105.838318 66.066513,106.927284 
	C66.066513,106.927284 65.992622,106.965462 66.058403,107.111481 
	C66.394791,107.283646 66.665390,107.309799 66.935997,107.335953 
	C67.270866,107.353477 67.539429,107.495964 67.857620,108.170761 
	C67.973534,108.578094 67.979805,108.974243 67.979805,108.974243 
z"/>
<path fill="#E44E43" opacity="1.000000" stroke="none" 
	d="
M75.000000,162.000610 
	C74.677940,161.897919 74.417091,161.710190 74.115654,160.851212 
	C76.053841,158.414032 78.093842,156.563049 80.133850,154.712067 
	C80.667145,154.943054 81.200447,155.174026 81.878555,156.032944 
	C82.349213,158.107468 82.675064,159.554031 83.000916,161.000610 
	C82.226189,161.332779 81.451462,161.664963 79.922043,161.998779 
	C77.778236,162.000473 76.389122,162.000549 75.000000,162.000610 
z"/>
<path fill="#E44D43" opacity="1.000000" stroke="none" 
	d="
M48.000751,28.001184 
	C47.108994,30.502409 46.217236,33.003632 45.118843,36.084438 
	C43.901989,35.582401 42.664211,35.071735 41.354504,33.986286 
	C43.872040,31.443851 42.473221,29.683453 40.997570,27.927042 
	C42.055592,27.283930 43.113613,26.640820 44.851067,25.987753 
	C46.353916,26.652260 47.177334,27.326721 48.000751,28.001184 
z"/>
<path fill="#E44C42" opacity="1.000000" stroke="none" 
	d="
M79.902061,154.460541 
	C78.093842,156.563049 76.053841,158.414032 74.006767,160.632507 
	C73.336586,160.235901 72.673470,159.471817 72.005020,158.354156 
	C71.686707,155.807785 71.373711,153.614975 71.090622,151.041107 
	C73.970444,151.843048 76.820358,153.026047 79.902061,154.460541 
z"/>
<path fill="#E54E44" opacity="1.000000" stroke="none" 
	d="
M139.897446,129.857193 
	C143.673111,127.582649 147.448776,125.308098 151.624100,123.027115 
	C152.023758,123.020691 152.136703,123.137718 152.129562,123.471970 
	C151.401489,125.529648 151.050751,128.375992 149.888031,128.759308 
	C146.792725,129.779755 143.347687,129.739349 140.007248,130.053986 
	C139.972778,129.987213 139.897446,129.857193 139.897446,129.857193 
z"/>
<path fill="#E44D43" opacity="1.000000" stroke="none" 
	d="
M58.995369,18.999022 
	C58.520878,21.504417 58.046387,24.009813 57.590157,26.418776 
	C54.813587,26.946499 52.308807,27.422567 49.410801,27.562565 
	C50.951698,25.718664 52.885822,24.210835 54.819942,22.703003 
	C55.114632,22.948837 55.409321,23.194670 55.704010,23.440504 
	C55.808788,22.034708 55.913567,20.628914 56.018341,19.223118 
	C56.312897,19.065647 56.607456,18.908176 57.551239,18.831694 
	C58.465431,18.941463 58.730400,18.970242 58.995369,18.999022 
z"/>
<path fill="#E55349" opacity="1.000000" stroke="none" 
	d="
M87.249832,121.999176 
	C86.335091,120.917076 85.669945,119.836174 85.000481,118.417679 
	C88.465996,119.515900 91.491951,118.459305 94.677414,116.341751 
	C95.008255,117.262489 95.003784,118.257103 94.999496,119.625404 
	C94.677765,120.102631 94.416870,120.290779 93.787445,120.921371 
	C92.237968,121.520531 91.118050,121.761856 89.998131,122.003174 
	C89.998131,122.003174 89.500458,122.003983 89.000565,122.002647 
	C88.333321,122.001610 88.165962,122.001900 87.998611,122.002197 
	C87.998611,122.002197 87.499420,122.000366 87.249832,121.999176 
z"/>
<path fill="#E44A3F" opacity="1.000000" stroke="none" 
	d="
M85.998802,175.997696 
	C87.438293,171.395081 90.411842,170.687408 95.819130,173.912048 
	C93.365013,175.045547 90.566063,176.009613 87.266647,176.743988 
	C86.564392,176.261902 86.308601,176.089691 85.998802,175.997696 
z"/>
<path fill="#E54E44" opacity="1.000000" stroke="none" 
	d="
M157.803253,114.340164 
	C159.366928,114.583771 160.784241,115.170006 162.162338,115.740013 
	C160.384521,118.097580 159.199722,119.668755 157.735016,121.812714 
	C155.682327,122.636238 153.909515,122.886978 152.136703,123.137711 
	C152.136703,123.137718 152.023758,123.020691 151.967865,122.961578 
	C155.733948,121.495438 157.847763,118.894508 157.803253,114.340164 
z"/>
<path fill="#E3524D" opacity="1.000000" stroke="none" 
	d="
M55.683151,19.275761 
	C55.913567,20.628914 55.808788,22.034708 55.704010,23.440504 
	C55.409321,23.194670 55.114632,22.948837 54.819942,22.703003 
	C52.885822,24.210835 50.951698,25.718664 49.007645,27.612431 
	C48.997711,27.998369 48.499222,28.000126 48.249985,28.000656 
	C47.177334,27.326721 46.353916,26.652260 45.159431,25.945827 
	C48.308228,23.718704 51.828094,21.523554 55.683151,19.275761 
z"/>
<path fill="#E3524D" opacity="1.000000" stroke="none" 
	d="
M40.647285,27.943668 
	C42.473221,29.683453 43.872040,31.443851 41.140873,33.701931 
	C40.554848,33.994003 40.110523,33.995647 39.332947,33.998245 
	C37.563000,33.337208 36.126301,32.675220 34.331047,31.993229 
	C36.080658,30.635582 38.188831,29.297937 40.647285,27.943668 
z"/>
<path fill="#E75049" opacity="1.000000" stroke="none" 
	d="
M159.825104,41.683537 
	C157.695648,42.971642 155.392242,43.971344 154.244934,44.469288 
	C153.067871,41.846619 152.108704,39.709442 151.137665,37.203705 
	C153.967606,38.355148 156.809387,39.875141 159.825104,41.683537 
z"/>
<path fill="#E55349" opacity="1.000000" stroke="none" 
	d="
M65.863800,106.655952 
	C63.510647,105.838318 60.111305,110.366562 58.045258,105.365089 
	C57.355679,103.930298 56.709087,102.859695 56.028488,101.496849 
	C59.216686,102.931274 62.438892,104.657944 65.863800,106.655952 
z"/>
<path fill="#E75049" opacity="1.000000" stroke="none" 
	d="
M137.686722,45.835938 
	C137.744003,46.480724 137.490372,46.960922 137.130737,47.691879 
	C134.810486,46.813156 132.596252,45.683670 130.200302,44.272614 
	C133.301010,40.916962 135.681427,41.792248 137.686722,45.835938 
z"/>
<path fill="#E75049" opacity="1.000000" stroke="none" 
	d="
M136.667786,52.139114 
	C137.003113,52.843124 137.001114,53.561901 136.998566,54.640198 
	C135.172241,57.223595 133.348816,59.455143 129.938324,56.721371 
	C131.941589,54.958557 134.136017,53.556217 136.667786,52.139114 
z"/>
<path fill="#E64E44" opacity="1.000000" stroke="none" 
	d="
M75.998764,115.000000 
	C73.039963,115.261314 69.408546,116.964073 69.449203,111.365845 
	C70.777229,110.935181 71.665932,110.877518 72.554642,110.819847 
	C72.554642,110.819847 72.832207,110.784546 73.060760,111.130630 
	C73.790833,111.670074 74.292358,111.863419 74.793892,112.056763 
	C75.110611,112.204971 75.427330,112.353188 75.873840,113.072266 
	C76.002022,114.095421 76.000397,114.547714 75.998764,115.000000 
z"/>
<path fill="#E54E44" opacity="1.000000" stroke="none" 
	d="
M162.573425,76.874184 
	C162.750626,78.427032 162.582642,80.024727 162.414658,81.622414 
	C160.668686,81.393387 158.922729,81.164360 156.800812,80.869202 
	C158.359329,79.508377 160.293777,78.213699 162.573425,76.874184 
z"/>
<path fill="#E75049" opacity="1.000000" stroke="none" 
	d="
M137.623734,28.761127 
	C135.576019,28.959675 133.265396,29.199722 131.165176,28.644258 
	C130.296783,28.414587 129.879410,26.479628 129.458893,24.923683 
	C132.255798,25.845406 134.850723,27.163677 137.623734,28.761127 
z"/>
<path fill="#E44D43" opacity="1.000000" stroke="none" 
	d="
M17.993324,67.456924 
	C18.025787,65.088089 18.058807,63.179478 18.110842,61.271385 
	C18.112772,61.200661 18.360559,61.056011 18.391497,61.079651 
	C18.609198,61.246010 18.800051,61.447498 19.064919,61.938396 
	C19.129576,67.533020 19.128796,72.827019 18.768810,78.546768 
	C18.409607,78.972534 18.056793,78.956795 18.056793,78.956795 
	C18.036892,75.276939 18.016991,71.597092 17.993324,67.456924 
z"/>
<path fill="#E7544A" opacity="1.000000" stroke="none" 
	d="
M39.599945,45.003052 
	C40.281509,45.634560 40.566734,46.267593 41.168129,47.079659 
	C40.397926,48.023388 39.311550,48.788090 37.975159,49.774246 
	C37.181866,48.850471 36.212460,47.682518 36.271828,46.569431 
	C36.302345,45.997314 38.167503,45.523056 39.599945,45.003052 
z"/>
<path fill="#E44C42" opacity="1.000000" stroke="none" 
	d="
M64.028412,165.419464 
	C66.479340,165.694489 70.912994,162.424515 70.931328,168.848129 
	C68.672836,168.055481 66.436424,166.885239 64.028412,165.419464 
z"/>
<path fill="#E75049" opacity="1.000000" stroke="none" 
	d="
M129.235687,24.065308 
	C126.349136,23.875570 123.314308,23.396275 119.829086,22.872009 
	C123.038307,18.810715 125.904892,22.909794 129.235687,24.065308 
z"/>
<path fill="#E44C42" opacity="1.000000" stroke="none" 
	d="
M83.331512,160.971573 
	C82.675064,159.554031 82.349213,158.107468 82.029861,156.285019 
	C83.540756,156.786469 85.045151,157.663788 86.771835,158.780396 
	C85.883469,159.660614 84.772797,160.301575 83.331512,160.971573 
z"/>
<path fill="#E7544A" opacity="1.000000" stroke="none" 
	d="
M69.625351,51.228321 
	C68.971497,53.133511 68.659172,55.915363 64.954391,54.590096 
	C66.145668,53.344200 67.719360,52.285881 69.625351,51.228321 
z"/>
<path fill="#E44A3F" opacity="1.000000" stroke="none" 
	d="
M122.011642,140.135071 
	C123.023651,140.589325 123.769737,141.118683 124.515823,141.648041 
	C123.379707,141.658005 122.243591,141.667969 121.053833,141.339539 
	C121.248711,140.737488 121.497223,140.473816 122.011642,140.135071 
z"/>
<path fill="#E55349" opacity="1.000000" stroke="none" 
	d="
M47.376183,97.999695 
	C46.354118,97.179367 45.710094,96.359459 45.059662,95.208084 
	C46.835007,95.761093 48.616760,96.645584 50.584923,97.795486 
	C49.765633,98.040649 48.759930,98.020386 47.376183,97.999695 
z"/>
<path fill="#E44A3F" opacity="1.000000" stroke="none" 
	d="
M108.598938,147.810364 
	C108.763908,149.023285 108.639168,150.280548 108.514427,151.537796 
	C108.008980,150.897217 107.503532,150.256638 106.985367,149.266479 
	C107.418175,148.562836 107.863693,148.208771 108.598938,147.810364 
z"/>
<path fill="#E75049" opacity="1.000000" stroke="none" 
	d="
M143.959412,32.453117 
	C143.116394,32.383495 142.094940,32.062195 141.035019,31.410572 
	C141.924683,31.453979 142.852829,31.827709 143.959412,32.453117 
z"/>
<path fill="#E55349" opacity="1.000000" stroke="none" 
	d="
M76.403709,115.000244 
	C76.000397,114.547714 76.002022,114.095421 76.009323,113.303955 
	C77.254395,113.438744 78.493774,113.912720 79.891327,114.678864 
	C78.969215,114.980850 77.888931,114.990677 76.403709,115.000244 
z"/>
<path fill="#E54E44" opacity="1.000000" stroke="none" 
	d="
M40.889229,112.382881 
	C42.048733,112.564842 43.431763,113.005310 44.815308,113.844620 
	C43.581467,113.709435 42.347107,113.175407 40.889229,112.382881 
z"/>
<path fill="#E55349" opacity="1.000000" stroke="none" 
	d="
M72.360329,110.528625 
	C71.665932,110.877518 70.777229,110.935181 69.444870,110.995361 
	C69.005371,110.540970 69.009521,110.084084 69.026733,109.284668 
	C70.081871,109.373901 71.123947,109.805656 72.360329,110.528625 
z"/>
<path fill="#E3524D" opacity="1.000000" stroke="none" 
	d="
M33.659012,31.997738 
	C33.184517,32.631191 32.393200,33.292446 31.236275,33.919197 
	C31.694506,33.264969 32.518349,32.645256 33.659012,31.997738 
z"/>
<path fill="#E54E44" opacity="1.000000" stroke="none" 
	d="
M47.838890,116.401520 
	C48.713551,116.476067 49.779869,116.817329 50.923332,117.512451 
	C50.010502,117.466949 49.020523,117.067596 47.838890,116.401520 
z"/>
<path fill="#E7544A" opacity="1.000000" stroke="none" 
	d="
M74.687454,48.089485 
	C74.235458,48.721363 73.469437,49.360405 72.356003,49.998909 
	C72.796860,49.364464 73.585144,48.730560 74.687454,48.089485 
z"/>
<path fill="#E75049" opacity="1.000000" stroke="none" 
	d="
M166.825775,45.718269 
	C166.013229,45.585648 165.064941,45.178783 164.056442,44.439659 
	C164.894165,44.552944 165.792084,44.998486 166.825775,45.718269 
z"/>
<path fill="#E54E44" opacity="1.000000" stroke="none" 
	d="
M67.791779,127.618073 
	C68.407097,127.654953 69.148407,127.969727 69.946320,128.624863 
	C69.307869,128.608810 68.612816,128.252396 67.791779,127.618073 
z"/>
<path fill="#E44E43" opacity="1.000000" stroke="none" 
	d="
M85.632011,176.002350 
	C86.308601,176.089691 86.564392,176.261902 86.878906,176.719543 
	C86.071938,176.842285 85.152260,176.759811 84.016235,176.380127 
	C84.288338,176.057617 84.776779,176.032318 85.632011,176.002350 
z"/>
<path fill="#E75049" opacity="1.000000" stroke="none" 
	d="
M149.783173,35.723148 
	C149.114212,35.765442 148.242920,35.552662 147.232361,35.022896 
	C147.922348,34.959969 148.751572,35.214020 149.783173,35.723148 
z"/>
<path fill="#E8524A" opacity="1.000000" stroke="none" 
	d="
M21.964211,81.663612 
	C21.435139,81.775528 20.745905,81.627007 20.055777,81.201744 
	C20.637938,81.084389 21.220991,81.243774 21.964211,81.663612 
z"/>
<path fill="#E84D46" opacity="1.000000" stroke="none" 
	d="
M2.173329,87.422745 
	C2.503809,87.864792 2.738442,88.659744 2.951500,89.780472 
	C2.929926,90.106239 2.492657,90.071823 2.279282,90.021042 
	C2.069766,89.238724 2.073625,88.507187 2.173329,87.422745 
z"/>
<path fill="#E54E44" opacity="1.000000" stroke="none" 
	d="
M63.288754,125.186684 
	C63.640476,125.111214 64.141724,125.263458 64.804947,125.627487 
	C64.457382,125.697647 63.947830,125.556023 63.288754,125.186684 
z"/>
<path fill="#E54E44" opacity="1.000000" stroke="none" 
	d="
M65.893585,126.363907 
	C66.334694,126.308769 66.971458,126.501244 67.700752,127.033493 
	C67.225266,127.119354 66.657249,126.865440 65.893585,126.363907 
z"/>
<path fill="#E55349" opacity="1.000000" stroke="none" 
	d="
M82.920486,116.734665 
	C82.491928,116.775787 81.905670,116.549133 81.202866,116.018723 
	C81.645149,115.965614 82.203964,116.216248 82.920486,116.734665 
z"/>
<path fill="#E55349" opacity="1.000000" stroke="none" 
	d="
M74.660400,111.812714 
	C74.292358,111.863419 73.790833,111.670074 73.144897,111.242409 
	C73.509285,111.194954 74.018097,111.381805 74.660400,111.812714 
z"/>
<path fill="#E3524D" opacity="1.000000" stroke="none" 
	d="
M28.678585,35.110271 
	C28.469187,35.408886 27.959259,35.684887 27.144218,35.947308 
	C27.352087,35.651703 27.865070,35.369682 28.678585,35.110271 
z"/>
<path fill="#E44A40" opacity="1.000000" stroke="none" 
	d="
M74.049255,131.323303 
	C74.291412,131.190094 74.630096,131.267654 74.985756,131.565338 
	C74.670448,131.860611 74.384789,131.776810 74.049255,131.323303 
z"/>
<path fill="#E44C42" opacity="1.000000" stroke="none" 
	d="
M138.007324,131.004761 
	C138.411926,130.610596 138.854187,130.253784 139.596954,129.877075 
	C139.897446,129.857193 139.972778,129.987213 139.825684,130.265808 
	C139.159454,130.734909 138.640320,130.925430 138.121170,131.115952 
	C138.121170,131.115952 138.044983,131.042114 138.007324,131.004761 
z"/>
<path fill="#E75049" opacity="1.000000" stroke="none" 
	d="
M161.766968,42.780712 
	C161.390427,42.840332 160.859055,42.659779 160.178253,42.234032 
	C160.556610,42.172737 161.084351,42.356640 161.766968,42.780712 
z"/>
<path fill="#E75049" opacity="1.000000" stroke="none" 
	d="
M138.223907,49.003372 
	C138.374573,48.933601 138.645584,49.147129 138.867691,49.519753 
	C138.660599,49.548126 138.502426,49.417400 138.223907,49.003372 
z"/>
<path fill="#E54E44" opacity="1.000000" stroke="none" 
	d="
M157.979019,106.249588 
	C158.164383,106.272888 158.271713,106.546799 158.218323,106.910980 
	C158.005417,106.834236 157.953217,106.667221 157.979019,106.249588 
z"/>
<path fill="#E55349" opacity="1.000000" stroke="none" 
	d="
M66.756516,107.150253 
	C66.665390,107.309799 66.394791,107.283646 66.093613,107.085373 
	C66.234383,106.930344 66.405708,106.947449 66.756516,107.150253 
z"/>
<path fill="#E8524A" opacity="1.000000" stroke="none" 
	d="
M18.134098,79.199165 
	C18.056793,78.956795 18.409607,78.972534 18.585464,78.981674 
	C18.818806,79.148964 18.876286,79.307106 18.995644,79.709763 
	C18.775482,79.783363 18.493443,79.612450 18.134098,79.199165 
z"/>
<path fill="#E55349" opacity="1.000000" stroke="none" 
	d="
M68.248764,108.981285 
	C67.979805,108.974243 67.973534,108.578094 67.961655,108.380585 
	C68.311325,108.117813 68.606895,108.228592 68.945740,108.737099 
	C68.875900,108.968636 68.696808,108.978485 68.248764,108.981285 
z"/>
<path fill="#E75248" opacity="1.000000" stroke="none" 
	d="
M66.629242,146.817429 
	C66.633850,146.959534 66.282761,146.780930 66.211807,146.714264 
	C66.140846,146.647614 66.391136,146.515488 66.391136,146.515488 
	C66.391136,146.515488 66.624641,146.675323 66.629242,146.817429 
z"/>
<path fill="#E75049" opacity="1.000000" stroke="none" 
	d="
M167.987503,46.729748 
	C167.747940,46.902279 167.468063,46.738163 167.132416,46.253304 
	C167.306656,46.188675 167.596832,46.342190 167.987503,46.729748 
z"/>
<path fill="#E84F44" opacity="1.000000" stroke="none" 
	d="
M156.280457,59.923210 
	C156.241043,59.686798 156.472153,59.450867 156.952820,59.167274 
	C156.985245,59.387634 156.768097,59.655663 156.280457,59.923210 
z"/>
<path fill="#E55349" opacity="1.000000" stroke="none" 
	d="
M53.763050,99.867142 
	C53.629353,99.976799 53.469318,99.894287 53.230106,99.688240 
	C53.367451,99.436417 53.562714,99.473175 53.763050,99.867142 
z"/>
<path fill="#E84D46" opacity="1.000000" stroke="none" 
	d="
M24.966969,63.283714 
	C25.157194,63.080166 25.420782,63.169342 25.790125,63.511040 
	C25.927145,63.671227 25.476107,63.684093 25.476107,63.684093 
	C25.476107,63.684093 25.071600,63.484100 24.966969,63.283714 
z"/>
<path fill="#E44C42" opacity="1.000000" stroke="none" 
	d="
M72.095215,170.204102 
	C72.277573,170.054062 72.508492,170.170258 72.823944,170.509277 
	C72.942039,170.665436 72.510918,170.677002 72.510918,170.677002 
	C72.510918,170.677002 72.177345,170.403641 72.095215,170.204102 
z"/>
<path fill="#E3524D" opacity="1.000000" stroke="none" 
	d="
M58.996346,18.710524 
	C58.730400,18.970242 58.465431,18.941463 57.804661,18.846132 
	C57.725094,18.507011 58.041325,18.234442 58.671928,17.903500 
	C58.989971,18.037430 58.993649,18.229729 58.996346,18.710524 
z"/>
<path fill="#E54E44" opacity="1.000000" stroke="none" 
	d="
M25.922573,83.779190 
	C25.725698,83.920532 25.491604,83.785820 25.176327,83.421097 
	C25.395580,83.172516 25.658983,83.276543 25.922573,83.779190 
z"/>
<path fill="#E8524A" opacity="1.000000" stroke="none" 
	d="
M23.996914,82.729858 
	C23.800741,82.929153 23.540442,82.829903 23.186417,82.469681 
	C23.383575,82.200775 23.663609,82.274971 23.996914,82.729858 
z"/>
<path fill="#E75049" opacity="1.000000" stroke="none" 
	d="
M138.926605,29.751854 
	C138.719254,29.913382 138.461365,29.777758 138.128845,29.369205 
	C138.338104,29.174850 138.612045,29.294325 138.926605,29.751854 
z"/>
<path fill="#E44E43" opacity="1.000000" stroke="none" 
	d="
M110.695244,146.561798 
	C110.726875,146.745895 110.578354,146.851486 110.280869,146.977448 
	C110.168121,146.771149 110.295853,146.599640 110.695244,146.561798 
z"/>
<path fill="#E75049" opacity="1.000000" stroke="none" 
	d="
M151.061584,36.654396 
	C150.857956,36.752762 150.560654,36.602516 150.145401,36.226524 
	C150.340942,36.135784 150.654419,36.270786 151.061584,36.654396 
z"/>
<path fill="#E54E44" opacity="1.000000" stroke="none" 
	d="
M157.914871,111.243317 
	C158.182587,111.168320 158.369461,111.331917 158.509644,111.528770 
	C158.537537,111.567970 158.386658,111.734467 158.143585,111.925545 
	C157.918518,111.837074 157.868073,111.665329 157.914871,111.243317 
z"/>
<path fill="#E54E44" opacity="1.000000" stroke="none" 
	d="
M44.894852,114.394379 
	C45.092907,114.271187 45.401993,114.384377 45.847931,114.709885 
	C45.658485,114.825058 45.332184,114.727913 44.894852,114.394379 
z"/>
<path fill="#E75049" opacity="1.000000" stroke="none" 
	d="
M163.214630,43.648937 
	C163.030182,43.758728 162.681488,43.638771 162.166779,43.292366 
	C162.350632,43.183674 162.700500,43.301430 163.214630,43.648937 
z"/>
<path fill="#E54E44" opacity="1.000000" stroke="none" 
	d="
M84.088356,137.200409 
	C84.268005,137.038712 84.499557,137.145004 84.817444,137.473282 
	C84.935814,137.625488 84.508095,137.666763 84.508095,137.666763 
	C84.508095,137.666763 84.172310,137.398605 84.088356,137.200409 
z"/>
<path fill="#E54E44" opacity="1.000000" stroke="none" 
	d="
M82.237358,136.129486 
	C82.391518,136.022079 82.570839,136.127884 82.822556,136.397644 
	C82.918541,136.521606 82.559578,136.535645 82.559578,136.535645 
	C82.559578,136.535645 82.286118,136.302719 82.237358,136.129486 
z"/>
<path fill="#E54E44" opacity="1.000000" stroke="none" 
	d="
M80.920853,135.210876 
	C81.109894,135.119003 81.416817,135.276352 81.874420,135.645584 
	C81.696312,135.725006 81.367516,135.592560 80.920853,135.210876 
z"/>
<path fill="#E3524D" opacity="1.000000" stroke="none" 
	d="
M30.647320,33.923225 
	C30.700361,34.158146 30.471241,34.460499 29.956139,34.828407 
	C29.901821,34.592861 30.133492,34.291763 30.647320,33.923225 
z"/>
<path fill="#E54E44" opacity="1.000000" stroke="none" 
	d="
M54.862366,120.341431 
	C55.054939,120.240005 55.381962,120.384399 55.853920,120.760681 
	C55.664837,120.857468 55.330826,120.722359 54.862366,120.341431 
z"/>
<path fill="#E8524A" opacity="1.000000" stroke="none" 
	d="
M19.981789,80.699532 
	C19.878033,80.972351 19.701679,80.984070 19.259991,80.996704 
	C18.996304,80.825569 18.997952,80.653526 19.014225,80.222961 
	C19.322300,80.122444 19.615744,80.280441 19.981789,80.699532 
z"/>
<path fill="#E84D46" opacity="1.000000" stroke="none" 
	d="
M28.833447,39.633148 
	C30.024998,39.782463 30.902367,40.101078 31.779734,40.419693 
	C30.784250,40.926105 29.788767,41.432522 28.793283,41.938934 
	C28.701944,41.226772 28.610605,40.514606 28.833447,39.633148 
z"/>
<path fill="#E84F44" opacity="1.000000" stroke="none" 
	d="
M154.648651,50.005630 
	C155.639450,51.376026 156.278900,52.752052 156.918365,54.128078 
	C156.556519,54.457264 156.194656,54.786449 155.832809,55.115631 
	C154.703552,53.934750 153.574295,52.753868 152.445023,51.572990 
	C153.062454,51.052414 153.679886,50.531837 154.648651,50.005630 
z"/>
<path fill="#E44A3F" opacity="1.000000" stroke="none" 
	d="
M138.078552,131.453583 
	C138.640320,130.925430 139.159454,130.734909 139.860168,130.332565 
	C143.347687,129.739349 146.792725,129.779755 149.888031,128.759308 
	C151.050751,128.375992 151.401489,125.529648 152.129562,123.471962 
	C153.909515,122.886978 155.682327,122.636238 157.729004,122.192490 
	C162.387390,121.351242 162.110077,124.316681 161.996704,127.577209 
	C159.486847,127.713295 156.978577,127.425980 154.287933,127.117767 
	C156.009857,135.556946 156.009857,135.556946 144.776794,139.705704 
	C144.864883,134.562439 140.753738,135.686554 137.403915,135.000504 
	C137.345001,133.929993 137.690460,132.860611 138.078552,131.453583 
z"/>
<path fill="#E44A3F" opacity="1.000000" stroke="none" 
	d="
M111.245834,155.274261 
	C113.541519,152.363007 116.050117,149.692764 118.651451,147.116150 
	C119.192299,146.580444 120.051842,146.321182 120.806915,146.054657 
	C124.624825,144.707047 128.456726,143.399109 132.642181,142.038330 
	C134.861923,141.766739 136.723236,141.534073 139.466217,141.191208 
	C135.144608,148.425461 127.307091,144.806473 122.582214,149.045807 
	C122.496933,152.150238 116.360794,156.011765 111.245834,155.274261 
z"/>
<path fill="#E44C42" opacity="1.000000" stroke="none" 
	d="
M75.030769,162.334442 
	C76.389122,162.000549 77.778236,162.000473 79.584137,162.000824 
	C79.688942,163.104019 79.376968,164.206833 79.032410,165.987946 
	C78.999489,167.110443 78.999130,167.554611 78.998779,167.998779 
	C78.212242,168.315811 77.425705,168.632858 76.320328,168.974564 
	C75.688171,166.888916 75.374855,164.778595 75.030769,162.334442 
z"/>
<path fill="#E44A3F" opacity="1.000000" stroke="none" 
	d="
M79.390045,168.005951 
	C78.999130,167.554611 78.999489,167.110443 79.000076,166.333130 
	C80.389107,166.000000 81.777901,166.000000 83.614395,166.292145 
	C84.708260,166.722672 85.354439,166.861023 86.000618,166.999390 
	C86.910805,167.606750 87.820992,168.214127 88.731178,168.821487 
	C87.757820,169.200607 86.704506,170.026367 85.827141,169.869278 
	C83.767120,169.500488 81.791245,168.661682 79.390045,168.005951 
z"/>
<path fill="#E44C42" opacity="1.000000" stroke="none" 
	d="
M95.980621,167.925110 
	C95.388962,167.416473 95.121468,166.905884 94.853973,166.395294 
	C95.599907,166.391556 96.345856,166.387802 97.091797,166.384064 
	C96.829468,166.897110 96.567123,167.410141 95.980621,167.925110 
z"/>
<path fill="#E44A3F" opacity="1.000000" stroke="none" 
	d="
M104.318573,161.956421 
	C104.451813,161.359772 104.905624,160.721985 105.679565,160.042114 
	C105.546173,160.638428 105.092651,161.276840 104.318573,161.956421 
z"/>
<path fill="#E44C42" opacity="1.000000" stroke="none" 
	d="
M85.832527,166.754944 
	C85.354439,166.861023 84.708260,166.722672 84.031036,166.292145 
	C84.554810,166.170166 85.109627,166.340317 85.832527,166.754944 
z"/>
<path fill="#E44A40" opacity="1.000000" stroke="none" 
	d="
M71.049164,122.339188 
	C74.734436,123.000908 78.469490,124.000298 82.602768,125.001411 
	C83.374313,126.368767 83.747635,127.734398 84.269073,129.641861 
	C77.602158,130.543518 74.716309,125.913673 71.049164,122.339188 
z"/>
<path fill="#E54E44" opacity="1.000000" stroke="none" 
	d="
M90.149704,122.300407 
	C91.118050,121.761856 92.237968,121.520531 93.678375,121.140198 
	C95.306732,122.432243 96.614601,123.863297 97.587631,125.647194 
	C96.501854,126.000740 95.750916,126.001434 94.999977,126.002136 
	C93.433739,124.867310 91.867508,123.732475 90.149704,122.300407 
z"/>
<path fill="#E44A40" opacity="1.000000" stroke="none" 
	d="
M95.040375,126.358139 
	C95.750916,126.001434 96.501854,126.000740 97.628380,125.999710 
	C98.003967,125.999390 98.501068,125.999008 98.750084,126.374031 
	C98.999908,127.498909 99.000717,128.248764 99.001526,128.998627 
	C97.694603,128.237137 96.387688,127.475639 95.040375,126.358139 
z"/>
<path fill="#E54E44" opacity="1.000000" stroke="none" 
	d="
M91.186096,135.128967 
	C90.195625,135.137512 89.422272,134.911606 88.648911,134.685699 
	C89.142883,134.173325 89.636841,133.660934 90.130798,133.148560 
	C90.554924,133.730530 90.979065,134.312515 91.186096,135.128967 
z"/>
<path fill="#E54E44" opacity="1.000000" stroke="none" 
	d="
M99.283218,128.860504 
	C99.000717,128.248764 98.999908,127.498909 98.998627,126.374069 
	C99.187073,126.906860 99.375992,127.814629 99.283218,128.860504 
z"/>
<path fill="#E54E44" opacity="1.000000" stroke="none" 
	d="
M135.954514,103.602074 
	C135.714218,103.208084 135.715973,102.816208 135.746078,102.426514 
	C135.746918,102.415581 136.050705,102.428047 136.213226,102.429604 
	C136.209000,102.821228 136.204773,103.212860 135.954514,103.602074 
z"/>
<path fill="#E54E44" opacity="1.000000" stroke="none" 
	d="
M88.088020,122.167984 
	C88.165962,122.001900 88.333321,122.001610 88.751724,122.002518 
	C88.727661,122.113747 88.452545,122.223763 88.088020,122.167984 
z"/>
<path fill="#E44E43" opacity="1.000000" stroke="none" 
	d="
M46.063217,146.361969 
	C48.292751,146.757599 50.584282,147.515823 52.938435,148.636414 
	C50.709110,148.240692 48.417160,147.482620 46.063217,146.361969 
z"/>
<path fill="#E75248" opacity="1.000000" stroke="none" 
	d="
M63.303463,154.127243 
	C64.467957,150.301147 66.404434,152.198563 68.147598,153.777847 
	C66.535141,154.086060 65.070549,154.170898 63.303463,154.127243 
z"/>
<path fill="#E64E44" opacity="1.000000" stroke="none" 
	d="
M44.338051,105.998245 
	C43.688416,104.896454 43.376675,103.792900 43.032772,102.343918 
	C44.137585,102.571037 45.274559,103.143600 46.705898,103.858078 
	C47.000332,104.167061 47.000401,104.334129 47.000908,104.751801 
	C46.226208,105.333778 45.451077,105.665131 44.338051,105.998245 
z"/>
<path fill="#E8524A" opacity="1.000000" stroke="none" 
	d="
M17.697796,86.159607 
	C17.998188,87.069954 17.998129,88.134003 17.997509,89.597038 
	C14.955393,89.231125 15.928491,87.812576 17.697796,86.159607 
z"/>
<path fill="#E75049" opacity="1.000000" stroke="none" 
	d="
M125.451340,26.531475 
	C125.419342,26.477356 125.483330,26.585596 125.451340,26.531475 
z"/>
<path fill="#E44D43" opacity="1.000000" stroke="none" 
	d="
M19.998749,54.001175 
	C19.389297,53.459255 18.781097,52.916157 18.172897,52.373062 
	C18.453852,52.077042 18.734804,51.781021 19.015759,51.485001 
	C19.340498,52.094570 19.665237,52.704140 19.996241,53.655594 
	C20.002504,53.997475 20.000000,54.000000 19.998749,54.001175 
z"/>
<path fill="#E44E43" opacity="1.000000" stroke="none" 
	d="
M103.023270,154.447525 
	C103.209244,155.582397 103.051048,156.653793 102.892853,157.725174 
	C102.454224,157.623886 102.015594,157.522598 101.576973,157.421295 
	C101.944351,156.408875 102.311722,155.396454 103.023270,154.447525 
z"/>
<path fill="#E55349" opacity="1.000000" stroke="none" 
	d="
M52.794685,103.806969 
	C52.234943,104.051018 51.736637,103.997559 51.238335,103.944092 
	C51.351788,103.497276 51.465244,103.050461 51.578697,102.603645 
	C52.004505,102.905579 52.430309,103.207520 52.794685,103.806969 
z"/>
<path fill="#E64E44" opacity="1.000000" stroke="none" 
	d="
M36.832726,98.754150 
	C36.354607,98.860580 35.708298,98.722618 35.030861,98.292480 
	C35.554668,98.170120 36.109604,98.339928 36.832726,98.754150 
z"/>
</svg>